<?xml version="1.0" encoding="utf-8"?>
<!-- Generator: Adobe Illustrator 24.3.0, SVG Export Plug-In . SVG Version: 6.00 Build 0)  -->
<svg version="1.1" id="Layer_1" xmlns="http://www.w3.org/2000/svg" xmlns:xlink="http://www.w3.org/1999/xlink" x="0px" y="0px"
	 viewBox="0 0 595.28 495" style="enable-background:new 0 0 595.28 495;" xml:space="preserve">
<style type="text/css">
	.st0{fill:#FFFFFF;}
</style>
<g>
	<path class="st0" d="M302.09,31.52c8.37,0,16.75,0,25.44,0c-1.14,2.32-2.83,1.8-4.19,1.83c-5.33,0.13-10.67,0.14-16,0.19
		c-7.21,0.07-8,0.76-7.51,8.2c0.6,9.14,1.61,18.24,2.3,27.37c1.29,17.1,2.68,34.19,3.66,51.3c1.66,28.94,2.31,57.92,1.94,86.91
		c-0.05,4.25,1.71,5.41,5.79,5.16c25.59-1.56,51.2-2.92,76.8-4.36c1.41-0.08,3.08,0.28,4.04-1.97c-2.44-0.89-4.88-0.48-7.25-0.35
		c-23.11,1.27-46.21,2.63-69.32,3.87c-6.23,0.34-7.48-0.86-7.4-7c0.3-25.16,0.23-50.33-1.12-75.46c-1.32-24.6-2.69-49.2-5.54-73.69
		c-0.44-3.8-0.68-7.63-1.17-11.42c-0.52-4,0.89-6.02,5.12-5.93c4.66,0.1,9.33-0.03,14-0.04c2.68,0,5.37,0.14,7.09-2.6
		c0.4-0.63,1.01-1.33,2.05-0.99c4.12,1.38,6.04-0.42,7.21-4.37c0.74-2.5,3.53-2.93,5.89-2.96c8.5-0.12,17.31-1.51,25.4,0.3
		c7.19,1.61,14.65,2.38,21.67,4.79c3.45,1.19,4.63,4.04,4.91,7.43c1.23,14.76,2.85,29.5,3.66,44.29
		c2.09,37.76,3.64,75.55,2.92,113.38c-0.12,6.11,0.05,10.93,6.11,14.33c3.07,1.72,5.23,5.07,7.77,7.72
		c3.33,3.47,6.63,6.4,11.83,7.58c7.75,1.74,9.98,8.91,11.37,15.65c1.05,5.09,4.07,7.08,8.51,7.47c7.97,0.7,15.98,0.96,23.46,4.32
		c0.82,0.37,1.98,0.31,2.9,0.09c4.76-1.13,9.6-0.41,14.33-0.76c13.08-0.96,24.3,4.83,36.17,8.37c9.82,2.93,16.57,9.54,22.21,17.68
		c10.16,14.69,14.24,31.44,16.48,48.76c3.12,24.18,2.04,48.21-3.76,71.92c-3.58,14.61-8.36,28.84-16.68,41.55
		c-9.05,13.83-20.42,24.67-37.66,27.17c-5.42,0.79-10.98,1.62-16.34,1.6c-15.75-0.07-31.5,4.37-47.15,0.71
		c-6.91-1.62-13.23-2.32-19.8,0.81c-2.02,0.96-4.57,1.25-6.85,1.16c-4.87-0.2-9.35-0.34-11.26,5.58c-0.6,1.86-2.91,2.02-4.72,2.34
		c-15.41,2.76-30.86,5.29-46.2,8.37c-6.29,1.26-12.3,0.33-18.33-0.68c-8.13-1.36-16.12-1.95-24.25,0.2
		c-10.47,2.77-20.88-0.2-31.24-1.16c-27.68-2.55-55.31-5.67-82.97-8.5c-38.91-3.98-77.84-7.89-116.75-11.85
		c-8.42-0.86-17.03-0.97-24.45-6.02c-3.35-2.28-6.45-4.87-8.5-8.33c-9.15-15.45-16.37-31.33-15.35-50.13
		c0.7-12.94-0.43-25.97-0.7-38.96c-0.07-3.41-0.72-5.68-5.09-5.49c-12.08,0.52-18.87-10.24-13.65-21.27c3.2-6.76,7.17-9,14.89-7.71
		c3.55,0.6,4.48-0.71,4.49-3.86c0.05-18,0.71-36,2.28-53.9c1.39-15.9,7.98-29.77,20.41-40.29c5.88-4.98,13.35-5.87,20.65-6.58
		c24.36-2.35,48.71-4.65,72.96-7.99c5.63-0.77,10.38-2.18,11.47-8.83c0.38-2.29,2.3-3.64,4.53-4.23c2.09-0.55,4.21-1.09,6.35-1.3
		c4.84-0.48,6.68-2.7,6.58-7.82c-0.31-17.16-0.12-34.33-0.12-51.5c0-23.33,0-46.67,0.03-70c0.01-6.79,0.18-7.11,6.8-7.54
		c17.93-1.18,35.89-1.86,53.79-3.39c12.61-1.08,25.22-2,37.85-2.67c3.34-0.18,4.67-1.8,4.58-5.12c-0.15-6-0.16-12-0.06-18
		c0.09-5.6,2.05-7.58,7.51-7.71c14.49-0.33,28.98-0.59,43.47-0.87c1.33-0.02,2.67,0.02,3.99,0.14c0.85,0.07,1.75,0.46,1.87,1.37
		c0.16,1.16-0.67,1.9-1.73,2.07c-1.64,0.25-3.3,0.42-4.96,0.43c-9.16,0.04-18.31,0.02-27.47,0.02
		C302.08,30.74,302.08,31.13,302.09,31.52z M60.59,338.42c-0.6-1.74,1.91-2.68,1.23-4.5c-12.93-0.97-25.79-2.15-38.92,0.2
		c6.4,0.37,12.57,0.43,18.65,1.17c6.38,0.78,13,0.31,19.07,3.1c0.01,4.15,0.09,8.3,0.01,12.45c-0.08,3.7,1.31,6.51,4.92,9
		c0-8.55,0-16.45,0-24.74C63.78,336.3,62.18,337.36,60.59,338.42z M222.6,361.39c1.66-0.02,3.33-0.09,4.99-0.04
		c1.61,0.05,3.42-0.67,5.15,0.85c-7.82,2.96-11.8,1.96-16.72-3.4c-9.45-10.3-18.31-21.1-27.05-32c-2.21-2.75-4.58-3.96-8.22-2.53
		c0.44,0.88,0.65,1.52,1.04,2.02c13.78,17.54,28.4,34.35,44.36,49.95c0.84,0.82,1.72,1.83,2.96,1.62c7.41-1.2,15-1.61,22.37-4
		c-1.44-3.13-4.57-4.38-4.88-7.49c1.89,0.12,2.76,1.63,3.88,2.81c5.65,5.96,6.04,5.94,10.8-0.68c0.58-0.8,1.11-1.64,1.64-2.47
		c1.6-2.51,0.86-3.74-2.07-3.49c-3.94,0.33-7.87,0.79-11.8,1.2c-1.6,0.17-2.21,1.24-2.42,2.67c-2.59-3.09-6.24-4.11-11.25-4.56
		c6.83-2.74,6.83-2.74,3.36-8.56c-0.51-0.85-1.09-1.68-1.5-2.58c-1.36-2.97-2.86-2.56-4.72-0.41c-3.25,3.76-6.59,7.43-9.9,11.13
		c-1.75-2.06-0.11-3.36,1.11-4.66c2.61-2.8,5.31-5.52,7.94-8.31c0.99-1.05,2.73-2.06,1.73-3.73c-3.39-5.68-6.97-11.23-10.49-16.83
		c-0.96,5.44-2.12,9.89-6.31,12.86c-4.22,3-8.65,1.97-13.17,0.15c5.59,6.83,11.33,13.3,17.03,19.78
		C221.09,361.39,221.66,361.9,222.6,361.39z M193.66,271.39c-2.11,0.2-4.65-0.32-5.88,1.9c-1.43,2.6,1.31,3.88,2.51,5.39
		c18.95,23.87,37.45,48.06,53.32,74.15c0.92,1.51,2.49,10.25,5.98,1c0.09-0.24,0.54-0.44,0.84-0.47c5.97-0.65,11.83-2.98,17.98-1.31
		c-0.04-0.28-0.02-0.64-0.16-0.93c-14.1-29.57-34.41-54.92-54.63-80.32c-1.23-1.55-2.85-2.33-4.83-2
		c-5.07,0.84-10.14,1.75-15.2,2.63L193.66,271.39z M510.23,461.57c5.59-1.23,10.4-3.91,14.77-7.6
		c15.13-12.78,21.56-30.48,27.58-48.42c0.62-1.71,1.35-3.4,1.84-5.14c7.52-26.76,7.91-53.93,3.59-81.15
		c-2.68-16.92-7.83-33.09-19.95-46.06c-12.29-13.15-29.35-14.29-43.45-3.19c-10.12,7.97-16.9,18.35-21.79,29.96
		c-14.97,35.48-18.61,72.22-11.42,110.03c2.9,15.25,7.95,29.66,18.52,41.4C487.98,460.37,497.8,465.16,510.23,461.57z M146.3,459.85
		c4.65,1.79,9.06,1.32,13.33,1.76c22.17,2.29,44.37,4.4,66.55,6.59c21.85,2.15,43.71,4.25,65.55,6.52c6.37,0.66,6.51,0.72,6.63-5.59
		c0.48-25.31,0.3-50.62,0.76-75.93c0.8-44.13,0.57-88.28,0.7-132.43c0.03-9.54-5.37-15.26-15.43-15.88
		c-20.6-1.26-41.21-2.26-61.82-3.22c-18.62-0.87-37.26-1.55-55.88-2.32c-3.2-0.13-6.42-1.45-9.87-0.02c2.3,4.09,5.61,5.6,9.95,5.82
		c25.43,1.29,50.85,2.71,76.27,4.08c1.86,0.1,3.7,0.3,5.2,1.49c9.79,7.75,20.39,14.7,29.17,23.46c24.8,24.74,27.21,71.45,5.57,99.1
		c-10.63,13.58-24.03,22.53-42.28,21.55c-7.81-0.42-15.63-0.7-23.43-1.31c-4.23-0.33-6.14,0.18-5.79,5.46
		c0.88,13.37-1.72,15.46-15.06,13.98c-0.33-0.04-0.66-0.08-0.99-0.11c-9.02-0.94-14.12-11.65-9.04-19.35
		c1.01-1.54,0.72-1.85-0.65-2.42c-6.81-2.83-14.82-0.23-18.79,6.13c-1.62,2.59-2.57,5.46-3,8.42c-2.08,14.32-4.11,28.64-6,42.99
		C156.94,456.21,154.74,458.62,146.3,459.85z M40.61,377.41c0.1,16.01-0.38,30.35,1.57,44.54c1.41,10.26,9.65,18.33,18.38,19.25
		c16.88,1.78,33.78,3.22,50.72,4.31c3.47,0.23,4.39-0.98,4.63-3.99c0.8-9.99,0.28-19.98,0.32-29.97c0.01-2.93-2.04-3.46-4.31-3.81
		c-9.27-1.46-12.31-4.87-12.25-14.18c0.05-8.16,0.52-16.31,0.58-24.47c0.15-21.49,0.14-42.98,0.29-64.47
		c0.07-10.38,2.59-13.06,12.64-13.43c2.93-0.11,4.22-1.05,4.2-4.09c-0.08-9-0.08-17.99,0.06-26.99c0.05-3.15-1.26-4.03-4.26-4.74
		c-16.34-3.9-33.08-3.44-49.64-4.62c-12.23-0.87-19.44,5.66-20.8,17.88c-1.42,12.74-1.89,25.56-1.95,38.39
		c-0.01,1.61-0.86,3.81,0.57,4.71c1.62,1.02,2.88-1.09,4.2-1.94c11.34-7.32,26.25-6.78,37,1.42c17.01,12.99,20.77,42.23,7.79,61.27
		c-6.33,9.28-14.98,14.17-26.47,14.42C55.2,387.07,48.01,384.08,40.61,377.41z M235.39,131.23c0.02,0,0.03,0,0.05,0
		c0-7.83,0.02-15.66,0-23.49c-0.04-12.66-0.1-25.32-0.15-37.98c-0.01-2.61,0.05-5.23-3.77-4.99c-13.12,0.83-26.24,1.73-39.36,2.39
		c-4.32,0.22-5.55,2.11-5.51,6.27c0.16,15.49,0.11,30.99-0.06,46.48c-0.27,24.31,0.63,48.63-0.59,72.94
		c-0.3,6.05,0.46,6.71,6.23,6.41c12.46-0.65,24.92-1.58,37.4-1.88c4.72-0.11,5.89-1.76,5.85-6.18
		C235.28,171.22,235.39,151.22,235.39,131.23z M397.24,163.06c0.29-38.82-2.03-77.53-4.98-116.21
		c-0.81-10.64-1.43-10.98-13.55-10.22c-3.14,0.2-4.12,1.51-3.78,4.38c0.48,3.97,0.66,7.99,1.42,11.9
		c5.27,27.12,10.81,54.18,11.98,81.91c0.63,14.82,0.87,29.63,0.37,44.45c-0.25,7.43-4.13,11.54-10.88,12.03
		c-12.78,0.91-25.58,1.66-38.38,2.26c-5.66,0.27-7.89-1.99-7.98-7.71c-0.11-7.49-0.06-14.99,0.03-22.48
		c0.35-27.16-0.99-54.25-2.73-81.34c-0.85-13.25-3.35-26.47-1.71-39.84c0.32-2.63-0.89-3.7-3.39-3.67
		c-5.16,0.06-10.33,0.14-15.49,0.16c-2.41,0.01-3.17,1.1-2.91,3.46c0.41,3.81,0.43,7.65,0.83,11.46c2.84,26.82,4.38,53.74,5.6,80.66
		c1.01,22.29,1.49,44.61,1.07,66.93c-0.09,4.91,1.74,6.41,6.47,6.12c23.59-1.43,47.19-2.65,70.78-3.94
		c6.46-0.35,7.06-0.75,7.17-7.31C397.36,185.05,397.24,174.05,397.24,163.06z M445.43,251.92c-4.88,1.02-10.21-2.52-14.72,1.52
		c-0.18,0.16-0.93-0.16-1.3-0.42c-5.73-4.06-11.45-2.14-16.71,0.63c-6.26,3.31-11.03,8.58-15.23,14.21
		c-11.49,15.38-17.61,33.09-22,51.52c-8.56,35.96-8,71.65,3.85,106.8c4.41,13.08,11.02,25.12,23.29,32.73
		c6.91,4.29,14.38,6.62,23.1,3.83c-0.75-0.97-1.11-1.74-1.71-2.19c-5.46-4.13-6.97-9.73-6.61-16.3c0.17-3.05,0.58-6.23-1.44-9.16
		c-8.52-12.35-12.21-26.43-14.7-41.01c-1.46-8.55,0.07-17.76-5.42-25.51c-0.74-1.05-0.45-2.91-0.46-4.4
		c-0.06-21.71,3.62-42.81,11.64-62.95c2.41-6.07,2-12.24,3.12-18.32c1.23-6.72,5.29-11.62,9.18-16.7c0.97-1.27,2.81-0.97,4.26-0.54
		c2.58,0.77,4.42-0.21,6.27-1.94C434.54,259.24,439.69,255.31,445.43,251.92z M241.66,130.39c0.05,0,0.09,0,0.14,0
		c0,20.49,0,40.99,0,61.48c0,2.78-0.06,5.25,3.97,5.42c11.47,0.49,22.94,1.17,34.4,2c3.86,0.28,4.74-0.99,4.55-4.79
		c-0.93-18.79-1.53-37.59-2.25-56.39c-0.91-23.62-1.96-47.24-2.67-70.87c-0.14-4.84-2.13-5.98-6.43-5.57
		c-7.95,0.75-15.92,1.35-23.89,1.85c-7.79,0.49-7.8,0.4-7.8,8.39C241.65,91.4,241.66,110.9,241.66,130.39z M152.5,233.45
		c1.47,3.08,3.33,2.72,4.9,2.79c27.6,1.36,55.2,2.64,82.8,4.02c15.13,0.76,30.26,1.47,45.36,2.63c10.33,0.79,15.01,5.58,16.33,16.06
		c1.38,10.94,0.15,21.92,0.07,32.89c-0.38,51.48-0.79,102.95-1.18,154.43c-0.06,8-0.01,16-0.09,23.99
		c-0.07,6.42-1.07,7.27-7.36,6.64c-17.39-1.75-34.77-3.57-52.16-5.21c-33.3-3.13-66.62-6.15-99.93-9.19
		c-1.52-0.14-2.95-0.39-4.18-1.41c-2.48-2.07-3.1-0.63-3.22,1.74c-0.13,2.49,0.66,4.21,3.46,4.5c3.31,0.35,6.6,0.86,9.9,1.21
		c24.33,2.57,48.66,5.17,73,7.64c19.54,1.99,39.08,3.96,58.64,5.66c9.59,0.83,19.15,3.32,28.82,1.81
		c14.97-2.34,29.89-4.99,44.79-7.7c5.87-1.07,11.94-1.38,18.19-3.66c-4.35-2.03-8.01-2.42-12.21-2.04
		c-14.56,1.33-28.51,6.36-43.23,6.7c-4.07,0.09-5.58-1.37-5.59-5.01c-0.02-24.83-0.12-49.66,0.1-74.48
		c0.04-4.38,2.29-8.56,1.49-13.22c-1.41-8.22-1.7-16.55-1.54-24.89c0.29-15.52,2.49-30.88,1.28-46.58
		c-1.28-16.53,0.14-33.28,0.51-49.93c0.07-2.97,0.52-5.98,1.16-8.89c1.65-7.44,5.67-11,13.31-11.97c2.97-0.38,5.99-0.38,8.95-0.82
		c14.58-2.14,29.81,0.7,43.82-6.23c4.1-2.03,9.05-1.58,13.79-1.17c9.43,0.83,18.84,2.29,28.37,0.65c5.82-1.01,11.3-0.34,13.92,6.52
		c-2.34-10.43-5.41-12.9-15.52-12.3c-15.29,0.89-30.56,1.97-45.84,3.06c-16.43,1.17-32.84,2.64-49.29,3.59
		c-11.12,0.64-22.12,2.81-33.37,2.05c-25.91-1.74-51.83-3.17-77.75-4.69c-16.62-0.97-33.23-1.94-49.86-2.78
		c-4.61-0.23-9.29-0.81-13.88,1.05c15.01,0.92,30.02,1.85,45.03,2.77c-0.04,0.6-0.07,1.2-0.11,1.8
		C180.53,234.82,166.87,234.15,152.5,233.45z M131.06,262.55c-1.28,52.68-2.87,104.83-2.11,157.4c5.67-4.43,7.79-4.52,11.17-0.82
		c3.29,3.6,3.53,8.7,0.54,11.76c-1.83,1.86-4.06,2.11-6.47,1.58c-2.27-0.5-3.44-2.59-5.48-4.51c0,5-0.02,9.16,0,13.32
		c0.03,5.51,1.77,7.14,7.19,6.66c3.47-0.31,5.38-2.24,5.78-5.75c1.22-10.75,2.6-21.48,3.69-32.24c0.74-7.25,2.22-14.23,6.84-20.05
		c5.55-6.98,12.2-11.44,21.92-10.03c7.12,1.03,14.41,0.92,22.61,1.38c-1.34-1.4-1.86-2-2.44-2.55
		c-12.98-12.38-19.83-27.74-21.92-45.35c-0.29-2.47-1.41-4.4-2.76-6.3c-3.95-5.57-7.93-11.13-11.91-16.67
		c-1.48-2.06-2.42-4.37-0.43-6.35c2.8-2.78,1.54-4.93-0.37-7.32c-1.87-2.34-3.62-4.79-5.43-7.18
		C144.68,280.54,137.87,271.54,131.06,262.55z M381.3,157.94c0.37-9-0.28-17.96-0.73-26.93c-1.18-23.69-5.47-46.89-10.45-70
		c-0.73-3.38-2.64-4.63-6.04-4.41c-7.14,0.47-14.28,0.94-21.43,1c-3.96,0.03-4.55,1.32-3.91,5.05c4.74,27.42,7.62,55.01,7.17,82.91
		c-0.17,10.49-0.39,20.96-1.18,31.42c-0.3,3.94,1.11,5.5,5.08,5.19c9.12-0.71,18.25-1.31,27.38-1.84c2.93-0.17,4.15-1.56,4.13-4.41
		C381.26,169.93,381.3,163.93,381.3,157.94z M305.31,182.59c-0.05-26.12-1.01-52.2-2.71-78.28c-1.41-21.58-3.53-43.08-5.36-64.62
		c-0.21-2.43-0.77-3.72-3.48-3.59c-1.81,0.09-3.64-0.28-5.46-0.48c-3.14-0.35-4.67,0.87-4.54,4.19c0.18,4.49,0.07,8.99,0.24,13.48
		c1.59,42.56,3.11,85.12,4.92,127.67c0.43,10.03-1.08,20.45,6.18,29.42c2.37,2.93,4.42,2.8,7.1,2.79c3.21,0,3.08-2.42,3.08-4.61
		C305.32,199.9,305.31,191.25,305.31,182.59z M417.88,226.24c0.37-0.55,0.73-1.11,1.1-1.66c-3.64-3.35-7.3-6.69-10.92-10.06
		c-1.06-0.98-2.2-1.23-3.64-1.15c-15.29,0.92-30.58,1.74-45.86,2.64c-20.27,1.2-40.52,2.7-60.8,3.59
		c-13.67,0.6-27.17-2.51-40.81-2.85c-30.32-0.75-60.61-0.38-90.72,3.93c-3.62,0.52-7.21,1.27-10.78,2.08
		c-1.6,0.36-2.69,1.71-2.5,3.31c0.19,1.55,1.83,1.07,2.91,1.13c18.44,1.02,36.89,1.98,55.33,3.01c21.77,1.22,43.53,2.7,65.31,3.64
		c9.3,0.4,18.55,1.81,27.92,1.01c19.89-1.69,39.81-3.19,59.71-4.7C382.05,228.82,399.97,227.55,417.88,226.24z M399.77,465.83
		c-12.21-8.43-19.92-20.07-25.35-33.43c-8.99-22.12-11.85-45.47-11.57-68.98c0.32-26.46,5.51-52.21,16.19-76.67
		c3.21-7.36,7.39-14.16,11.41-21.05c1.27-2.17,1.03-2.62-1.33-3.18c-9.53-2.27-9.89-2.2-15.26,6.19c-1.26,1.96-2.44,3.97-3.59,6
		c-0.89,1.58-1.6,2.79,0.16,4.78c2.73,3.08,1.43,5.86-2.56,5.8c-2.38-0.03-3.22,0.91-3.99,2.75c-3.3,7.84-5.91,15.91-7.88,24.18
		c-0.42,1.74-0.81,3.07,1.7,4.3c2.63,1.28,2.87,4.06-0.61,5.27c-2.92,1.01-4.15,2.83-4.52,5.82c-0.72,5.94-1.74,11.84-2.57,17.77
		c-0.18,1.31-0.31,2.74,0.87,3.72c0.88,0.73,2.48,1.1,2.76,1.95c0.59,1.79-1.35,1.22-2.21,1.74c-0.93,0.56,0.1,0.36,0.33,0.54
		c2.11,1.63,2.16,1.72-0.25,3.1c-1.39,0.79-1.72,1.94-1.72,3.32c0.02,3.33,0.06,6.66,0.12,9.99c0.03,1.39,0.34,3,1.88,3.13
		c3.43,0.31,3.87,2.3,3.59,5.12c-0.07,0.7,0.71,2.15,0.98,2.12c4.48-0.48,3.81,3.45,5.09,5.72c1.42,2.51,0.01,3.49-2.1,3.6
		c-2.89,0.14-4.65-1.25-4.86-4.42c-0.09-1.25,0.6-3.6-1.77-3.35c-2.42,0.26-1.69,2.42-1.51,4.01c1.32,11.43,3.31,22.74,6.82,33.7
		c4.61,14.42,10.81,27.97,22.48,38.27C386,462.48,392.17,465.75,399.77,465.83z M269.66,348.74c7.02-26.04,2.56-49.23-16.29-68.54
		c-8.6-8.81-19.45-13.28-32-12.74c-1.9,0.08-4.55-0.77-5.43,1.34c-0.71,1.71,1.48,3.14,2.56,4.55
		c14.95,19.59,30.38,38.83,42.91,60.13C264.34,338.46,266.92,343.65,269.66,348.74z M216.35,263.25c2.13,0,4.09,0.05,6.03-0.01
		c3.94-0.11,8.36,0.55,8.13-5.72c-0.05-1.33,1.38-2.28,2.9-2.19c1.94,0.11,3.42,1.4,3.25,3.15c-0.56,5.8,3.79,6.31,7.56,7.27
		c1.92,0.49,3.96,0.54,5.66,1.7c10.3,7.05,19.24,15.3,24.95,26.71c5.16,10.31,8.03,21.11,8.29,32.63
		c0.42,18.74-4.27,35.56-18.04,49.09c-4.18,4.11-9.08,7.3-13.68,10.88c8.48-3.23,15.07-8.93,20.93-15.63
		c1.28-1.47,3.13-3.5,4.93-1.87c1.39,1.26-0.87,2.86-1.76,4.12c-5.17,7.29-12.26,12.28-20.11,16.33c9.79-2.63,17.95-7.8,24.26-15.65
		c20.31-25.26,21.28-65.05,2.04-91.48c-9.08-12.47-22.35-20.27-34.27-29.55c-0.29-0.22-0.9-0.03-2.46-0.03
		c12.43,10.93,26.18,19.15,34.4,33.18c7.92,13.51,13.62,37.69,9.17,46.16c0-5.04,0-8.73,0-12.42c-0.83,22.6-2.62,33.47-6.68,35.86
		c-0.53-1.77,0.53-3.22,0.91-4.79c5.78-23.76,3.59-46.26-10.48-66.92c-7.4-10.86-18.53-17.56-28.33-25.77
		c-3.53-2.95-7.41-4.4-11.83-4.55c-18.13-0.63-36.24-1.73-54.34-3.05c-3.54-0.26-7.12-0.04-10.9-0.04c0.78,2.78,2.42,3.35,4.34,3.52
		c3.81,0.33,7.62,0.74,11.44,0.95c10.64,0.61,21.28,1.1,31.91,1.73c1.92,0.11,4.45-0.21,5.3,1.99
		C220.96,261.65,217.07,261,216.35,263.25z M150.06,455.22c3.7-0.37,4.75-2.74,5.23-5.45c0.79-4.42,1.17-8.93,2.15-13.3
		c3.39-15.12,0.47-31.69,11.49-46.08c-8.24,4.08-11.4,11.28-16.52,16.25c-1.12-7.53,5.6-17.58,13.44-19.63
		c4.6-1.2,9.24-0.81,13.91-0.37c9.9,0.94,19.82,1.74,31.01,2.7c-6.16-3.51-11.01-6.12-17.25-5.96c-6.79,0.18-13.64-0.57-20.4-1.41
		c-4.84-0.6-8.95,0.66-12.66,3.41c-6.38,4.73-10.89,10.73-11.83,18.91c-0.57,4.96-1.21,9.91-1.81,14.86
		c-1.01,8.26-1.77,16.56-3.12,24.77c-0.89,5.42-4.54,6.61-12.84,5.78c-5.03-0.51-4.55-3.82-4.53-7.21c0.1-23.5-0.03-47,0.31-70.5
		c0.53-36.49,0.9-72.97,0.77-109.46c-0.01-2.33,0.48-4.91-2.45-7.23c-0.36,7.16-0.88,13.57-0.98,19.99
		c-0.49,31.32-0.05,62.65-0.91,93.97c-0.68,24.82-0.26,49.66-0.31,74.49c-0.02,7.88,0,7.88,7.81,9.06
		c13.61,2.06,15.72,0.28,16.87-13.3c0.71-8.28,1.88-16.52,2.87-24.77c0.05-0.45,0.39-0.92,1.25-0.56c0.15,0.94,0.32,2,0.52,3.23
		c0.74-1.41-0.23-3.31,2.76-4.38C153.02,427.21,152.66,441,150.06,455.22z M148.36,243.86c-1.73,9.52-6.42,12.4-14.23,9.82
		c-1.37-0.45-2.99-1.8-4.09-0.29c-1.12,1.54,0.76,2.67,1.59,3.77c14.3,19.04,28.61,38.05,43.04,56.99c1.04,1.36,1.87,4.87,4.72,2.22
		c2.19-2.04,5.1-4.22,1.72-7.85c-2.48-2.67-4.33-5.95-6.87-8.56c-2.82-2.91-1.65-4.98,0.77-7.04c3.01-2.56,4.03,0.62,5.42,2.12
		c1.92,2.07,3.42,4.53,5.38,6.55c1.38,1.42,2.4,4.83,5.38,2.09c2.36-2.17,3.65-4.22,0.82-7.52c-9.66-11.23-18.95-22.78-28.41-34.18
		C158.74,256.16,153.83,250.37,148.36,243.86z M446.86,310.9c0.17,0.82,0.32,1.15,0.28,1.45c-0.12,0.82-0.28,1.65-0.51,2.44
		c-8.13,28.21-10.58,56.88-6.73,86c2.28,17.29,6.04,34.16,16.3,48.8c5.18,7.39,11.47,13.42,20.46,15.93
		c0.75,0.21,1.56,0.16,2.35,0.23c-0.83-6.41,3.04-1.23,4.41-1.52c2.91-0.62,6.03-0.19,9.78-0.19c-3.03-1.78-5.33-3.11-7.61-4.47
		c-1.14-0.68-2.29-1.67-3.57-0.38c-4.54,4.57-8.24,1.67-11.65-1.47c-11.14-10.23-18.44-23.07-21.67-37.57
		c-7.94-35.62-8.56-71.13,3.68-106.23c5.36-15.37,11.48-30.1,21.83-42.94c6.86-8.5,14.86-14.28,25.95-15.21
		c-12.71-0.46-22.27,5.76-30.44,14.61c-6.73,7.29-11.66,15.81-15.54,24.91c-1.41,3.3-3.25,5.04-7.21,4.5
		c-2.75-0.38-5.83-1.07-9.35,1.12c3.15,1.81,6.1,1.14,8.66,1.92c1.31,0.4,2.61,0.67,2.94,2.28c0.33,1.61-0.89,2.4-1.78,3.34
		c-1.47,1.54-3.4,0.94-5.19,1.09c-2.47,0.21-5.12-1.17-8.45,1.06C438.7,311.93,442.57,312.93,446.86,310.9z M356.52,242.91
		c-0.18-1.08-0.89-1.13-1.54-1.08c-9.94,0.85-19.87,1.8-29.82,2.54c-4.78,0.35-7.6,2.99-9.38,7.09c-1.4,3.25-1.92,6.66-1.98,10.22
		c-0.21,12.98,0.13,25.97-0.81,38.94c-0.23,3.15-0.1,6.32-0.12,9.49c-0.02,2.99,0,5.99,0,8.98
		C320.08,289.26,330.14,261.4,356.52,242.91z M117.38,309.3c-2.78,2.88-4.74,4.88-8.01,4.48c-3.19-0.39-4.54-3.01-6.78-5.14
		c-0.62,28.86-0.6,57.51-0.64,86.16c0,3.13,0.55,6.03,2.86,8.24c2.86,2.74,6.79,3.76,10.13,2.46c2.71-1.05,1.12-4.62,1.3-7.18
		c-3.24,0.45-1.54,4.39-3.76,5.06c-4.69-5.98-4.69-11.86,0.17-17.78c1.81,1.51,0.29,5.15,3.6,5.84
		C116.85,364.32,115.9,337.34,117.38,309.3z M239.83,201.59c-19.56,0.51-38.68,1.54-57.76,3.27c-5.3,0.48-10.56,1.39-15.81,2.28
		c-2.93,0.5-4.5,2.79-3.96,5.44c0.56,2.74,3.3,1.48,5.11,1.36c3.48-0.23,6.95-0.77,10.42-1.16c29.88-3.35,59.82-3.51,89.8-1.84
		c6.99,0.39,13.97,0.69,20.87,1.98c1.79,0.34,4.78,0,3.38-2.38c-1.65-2.81-2.82-6.78-7.54-6.95
		C269.37,203.06,254.4,202.26,239.83,201.59z M371.7,58.05c1.41,6.67,2.92,13.33,4.21,20.02c4.23,21.95,6.68,44.12,7.6,66.43
		c0.45,10.82,0.2,21.66,0.2,32.49c0,2.5,0.06,5.37-3.48,5.59c-11.3,0.71-22.6,1.32-33.91,1.92c-3.28,0.17-4.46-1.56-4.1-4.71
		c0.45-3.97,0.99-7.95,1.12-11.93c1.04-32.02,0.33-63.95-5.03-95.63c-1.76-10.42-3.17-20.93-7-30.91
		c0.36,7.32,0.81,14.62,1.85,21.84c5.19,36.01,7.97,72.12,5.92,108.54c-0.3,5.36-1.58,10.99,1.17,16.2c0.44,0.84,0.58,1.59-0.3,2.16
		c-0.92,0.6-1.51,0.2-1.89-0.74c-0.38-0.95-1.1-1.25-1.95-0.69c-0.32,0.21-0.63,0.84-0.56,1.19c0.2,0.95,1.08,1.25,1.92,1.29
		c1.66,0.08,3.33,0.14,4.99,0.05c11.14-0.66,22.27-1.35,33.4-2.09c0.97-0.06,2.34,0.39,2.76-1.25c-5.23-1.03-10.42,0.79-15.64-0.31
		c4.91-1.3,9.86-1.98,14.85-2.28c4.48-0.27,6.67-2.33,6.79-6.84c0.14-5.32,0.72-10.65,0.67-15.96c-0.22-22.33-1.51-44.59-5.02-66.68
		C378.21,82.94,376.12,70.15,371.7,58.05z M35.78,371.51c-0.38,0.72-0.66,1-0.65,1.27c0.54,15.64,1.06,31.27,1.67,46.9
		c0.41,10.5,9.08,22.04,18.92,25.54c3.87,1.38,7.91,0.96,11.86,1.39c15.38,1.67,30.78,3.2,46.19,4.49c6.29,0.53,6.43,0.06,6.57-6.21
		c0.48-22.31,0.28-44.62,0.76-66.94c0.83-38.62,0.05-77.28,1.19-115.91c0.05-1.79,0.89-4.02-1.53-5.49
		c-1.34,1.21-0.97,2.78-0.99,4.17c-0.31,19.48-0.22,38.96-0.72,58.44c-0.6,23.14-0.22,46.3-0.29,69.46
		c-0.05,17.82-0.17,35.65-0.16,53.47c0,4.27-1.09,6.27-6.1,5.75c-16.04-1.67-32.12-3.56-48.22-3.97
		c-13.92-0.35-24.27-11.72-24.99-26.6c-0.6-12.48-0.96-24.95-1.04-37.44C38.23,377.06,38.24,374.16,35.78,371.51z M345.84,258.84
		c-6.78,7.15-11.83,16.04-15.81,25.49c-10.04,23.79-14.28,48.76-14.42,74.49c-0.13,23.47,2.51,46.5,11.01,68.59
		c0.78,2.02,1.38,4.15,3.28,5.47c2.11,1.46,2.66,3.52,3.06,5.96c0.93,5.62,4.62,9.45,8.42,12.89
		C309.03,386.4,313.92,322.25,345.84,258.84z M402.62,386.95c1.79,16.01,5.08,30.67,12.98,43.95c1.01,1.7,2.15,3.41,3.55,4.8
		c2.44,2.44,5.97,2.11,8.38,0.95c1.89-0.91-0.4-3.47-1.15-5.1c-6.81-14.88-9.69-30.68-10.92-46.83c-0.26-3.5-1.24-5.32-4.97-5.02
		c-1.48,0.12-3-0.19-4.48-0.03c-1.32,0.13-3.34-1.21-3.82,0.97c-0.52,2.35,1.52,2.19,3.13,2.67c1.57,0.47,4.07,1.23,2.68,3.69
		C407,388.77,405.14,389.93,402.62,386.95z M252.26,381.74c7.09-2.86,12.81-7.5,17.15-13.76c11.18-16.11,13.89-34.03,10.38-52.94
		c-3.08-16.61-10.56-30.79-24.83-40.71c-2.88-2.01-5.81-3.71-9.98-3.64C283.13,296.17,285.18,354.8,252.26,381.74z M58.3,347.59
		c0.07-8.07,0.07-8.08-7.89-9.08c-10.05-1.26-20.14-1.88-30.27-1.94c-2.46-0.01-5.32-0.43-5.41,3.37c-0.08,3.43-0.83,6.92,4.22,8.04
		c11.83,2.64,23.66,5.17,35.7,6.67c2.67,0.33,3.76-0.44,3.65-3.08C58.26,350.25,58.3,348.92,58.3,347.59z M36.67,365.06
		c4.65,9.61,10.68,16.57,20.77,18.65c10.9,2.24,20.05-1.15,27.03-9.97c11.96-15.11,11.78-39.88-0.2-55.01
		c-13.36-16.87-32.37-12.85-42.5-0.6c-1.08,1.31-2.52,2.57-2.25,4.58c2.21,0.47,2.88-1.11,3.85-2.15
		c12.79-13.62,31.11-11.81,40.85,4.19c7.65,12.56,8.51,25.77,2.49,39.18c-4.12,9.18-10.77,15.55-21.3,16.79
		c-10.53,1.24-17.78-4.03-23.68-11.98C40.7,367.34,40.18,365.33,36.67,365.06z M398.85,242.06c-10.7,3.8-18.84,10.96-25.17,20.05
		c-17,24.44-24.9,52.22-27.53,81.41c-1.82,20.25-0.53,40.59,3.69,60.63c3.89,18.43,9.72,36.04,21.77,50.94
		c5.51,6.81,12.28,11.94,21.03,13.88c-4-1.98-7.9-4.12-11.36-7.05c-10.6-8.97-17.58-20.5-22.13-33.31
		c-15.79-44.43-16-89.07-0.29-133.58C366.57,273.26,377.58,253.75,398.85,242.06z M414.14,373.41c0.42-6.75,0.71-12.85,1.18-18.94
		c1.9-24.65,7.18-48.38,20.3-69.72c2.73-4.43-0.32-6.34-2.79-8.06c-3.02-2.09-3.27,1.67-4.31,3.14c-1.72,2.43-3.04,5.15-4.55,7.74
		c-0.69,1.18-1.46,2.5-0.68,3.74c2.11,3.38,0.57,6.4-0.67,9.47c-7.83,19.51-11.35,39.92-12.7,60.78
		C409.64,365.81,409.83,369.9,414.14,373.41z M242.72,382.6c-4.08,0.56-8.19,0.96-12.24,1.72c-6.28,1.17-11.69,0.35-16.28-4.72
		c-4.68-5.17-9.88-9.88-14.79-14.85c-1.28-1.29-2.87-2.64-3.38-4.25c-3.13-9.96-11.87-15.62-17.65-23.56
		c2.95,18.71,11.08,34.28,27.55,44.44C217.76,388.67,230.2,389.05,242.72,382.6z M180.77,133.9c-0.02,0-0.05,0-0.07,0
		c0,19.83-0.04,39.66,0.06,59.49c0.01,2.14-1.07,6.01,1.53,6.04c3.39,0.04,1.97-3.92,1.98-6.06c0.14-31.16,0.13-62.32,0.15-93.49
		c0.01-9.5,0-19-0.04-28.49c-0.01-1.27,0.21-3.09-1.52-3.24c-2.23-0.19-1.88,1.85-2.02,3.26c-0.11,1.16-0.06,2.33-0.06,3.5
		C180.77,94.58,180.77,114.24,180.77,133.9z M445.64,371.6c-0.35,15.72,0.99,30.57,4.38,45.24c0.72,3.1,1.72,5.3,5.51,4.33
		c4.12-1.05,1.57-3.69,1.16-5.48c-4.76-20.94-5.72-42.06-3.52-63.38c0.8-7.79,1.69-15.6,4.18-23c1.7-5.05-2.36-6.12-4.74-6.93
		c-2.34-0.8-1.94,2.85-2.3,4.43C446.91,341.76,445.28,356.93,445.64,371.6z M402.79,210.97c0.04-0.42,0.07-0.84,0.11-1.26
		c-2.08,0-4.16-0.1-6.23,0.02c-11.3,0.63-22.6,1.24-33.89,1.99c-12.29,0.81-24.56,1.87-36.84,2.61c-12.46,0.76-24.97,2.62-37.4,0.99
		c-22.55-2.95-45.17-3.11-67.82-2.95c-21.86,0.15-43.51,2.6-65.08,6c-3.5,0.55-5.8,2.25-7.43,5.17c-0.47,0.84-1.34,1.94-0.37,2.68
		c1.42,1.08,2.15-0.48,2.56-1.39c1.95-4.32,5.78-5.02,9.85-5.61c15.16-2.21,30.4-3.53,45.7-4.35c23.65-1.26,47.26-0.98,70.85,0.99
		c9.62,0.8,19.19,2.24,28.88,1.26c21.54-2.17,43.18-2.66,64.77-4.01C381.24,212.44,392.01,211.69,402.79,210.97z M35.88,318.58
		c2.69-2.21,2.4-4.3,2.43-6.24c0.24-14.31,1.01-28.59,2-42.86c0.92-13.26,10.15-21.8,23.31-21.16c6.81,0.33,13.59,1.09,20.39,1.53
		c4.04,0.26,8.11,0.84,12.56-0.11c-1.59-2.86-3.88-2.94-6.2-3.06c-6.97-0.38-13.95-0.68-20.91-1.27c-3.12-0.27-6.42-0.15-9.29-2.1
		c11.49-0.86,22.9,1.62,34.37,0.42c-7.04-1.06-14.1-1.86-21.17-1.93c-6.76-0.06-13.12-0.85-20.08,3.13
		C44,250.24,38.87,257,37.79,267.04c-1.02,9.41-1.48,18.9-1.85,28.37C35.65,302.83,35.88,310.28,35.88,318.58z M472.47,446.94
		c-3.49-6.63-6.99-13.23-9.2-20.44c-12.04-39.28-10.1-78.2,3.45-116.67c7.37-20.92,17.59-39.82,40.1-49.13
		c-2.89-0.21-5.22-0.28-7.52-0.57c-7.39-0.94-13.26,2.22-18.58,6.81c-1.14,0.98-2.43,2.26,0.1,3.3c4.34,1.79,3.61,4.31,1.24,7.39
		c-7.19,9.31-12.16,19.81-16.38,30.73c-8.38,21.71-12,44.3-11.68,67.43c0.2,14.29,2.35,28.43,5.4,42.48
		C461.71,428.96,466.25,438.25,472.47,446.94z M334.86,185.92c4.99-45.9,1.19-91.49-6.07-136.93
		C332.41,94.55,334.85,140.15,334.86,185.92z M357.14,30.64c-8.53-0.01-8.53-0.01-9.78,8.59c-0.02,0.16-0.06,0.33-0.09,0.49
		c-1.72,11.84-1.47,12.1,10.17,10.85c0.5-0.05,1-0.09,1.49-0.13c9.28-0.7,9.28-0.7,8.5-9.98C366.62,30.64,366.62,30.64,357.14,30.64
		z M52.64,450.52c3.71,5.02,8.04,8.93,14.35,9.63c20.32,2.24,40.66,4.37,60.99,6.56c1.17,0.13,2.52,0.42,3-0.98
		c0.59-1.74,0.78-3.66-0.32-5.28c-0.79-1.16-2.07-0.81-3.18-0.31c-1.54,0.71-3.1,1.02-4.83,0.85c-11.09-1.06-22.19-1.96-33.28-3.06
		C76.94,456.68,64.04,457.63,52.64,450.52z M107.15,232.56c-2.13,0.5-5.28-1.17-6.42,2.65c-2.96,9.89-0.7,13.75,9.42,15.66
		c2.44,0.46,4.94,0.65,7.43,0.88c1.84,0.17,3.13-0.44,3.74-2.44c3.32-10.82,0.32-15.43-10.94-16.59
		C109.39,232.62,108.39,232.62,107.15,232.56z M224.83,378.66c-0.48-0.58-1.05-1.39-1.74-2.1c-20.96-21.52-40.11-44.56-57.92-68.74
		c-0.79-1.07-1.6-3.33-3.29-2.22c-2.06,1.35-0.12,2.91,0.74,4.19c6.11,9.06,12.55,17.84,20.41,25.54
		c9.85,9.66,15.57,22.64,25.48,32.28c4.18,4.06,8.51,7.97,12.79,11.92c0.71,0.66,1.5,1.44,2.63,1
		C224.6,380.27,224.94,379.69,224.83,378.66z M214.85,259.05c-2.9-0.16-4.84-0.26-6.79-0.38c-10.1-0.6-20.21-1.22-30.31-1.81
		c-1.63-0.1-3.93-0.93-4.71,0.41c-1.14,1.94,1.42,2.98,2.43,4.35c1.57,2.13,3.44,4.05,5.09,6.13c1.63,2.05,3.25,2.47,5.47,0.74
		c2.3-1.79,5.19-1.96,8.01-2.39C200.99,265.05,208.43,265.5,214.85,259.05z M88.47,347c-0.07-2.98,0.15-6.01-0.84-8.89
		c-0.48-1.4-0.35-4.3-2.63-3.08c-2.7,1.44-7.88-1.79-8.18,4.11c-0.31,5.97-0.55,11.94-0.83,17.91c-0.09,1.84,0.47,3.16,2.42,3.81
		c4.94,1.66,7.79,0.09,9.17-4.97C88.38,352.96,88.43,349.99,88.47,347z M238.87,65.53c-0.32,0-0.64,0.01-0.97,0.01
		c0,43.4,0,86.81,0,130.21c0.32,0,0.64-0.01,0.97-0.01C238.87,152.35,238.87,108.94,238.87,65.53z M44.72,323.06
		c12.05,0.32,23.43,1.11,34.73,2.83c0.78,0.12,1.81,0.35,2.1-0.68c0.14-0.5-0.23-1.26-0.58-1.76
		C71.27,309.74,52.51,311.06,44.72,323.06z M143.46,242.29c0.05-1.07,0.14-1.74,0.1-2.4c-0.09-1.61,1.17-3.6-0.34-4.74
		c-1.77-1.33-3.41,0.21-4.94,1.21c-2.08,1.36-4.34,1.59-6.71,0.98c-6.31-1.64-6.92-1.24-7.56,5.32c-0.19,1.98-0.17,3.99-0.11,5.99
		c0.05,1.83,1.15,2.51,2.64,1.49c3.35-2.3,6.45-2.25,9.59,0.32c0.82,0.67,1.88,0.37,2.89,0.27
		C145.18,250.11,142.79,245.22,143.46,242.29z M79.35,371.35c-12.33,0.11-23.83-2.77-35.93-4.45
		C51.14,380.77,68.61,382.77,79.35,371.35z M312.05,397.54c0,17.5,0,35,0,53.16c1.15-4.02,1.44-7.48,1.45-10.96
		c0-4.28,1.3-7.59,6.05-8.34c1.93-0.3,2.65-1.09,1.91-3.02C317.65,418.32,314.82,407.96,312.05,397.54z M396.86,246.9
		c0.54,1.7,3.37-0.25,2.7,2.2c-0.35,1.29-1.73,1.42-2.94,0.87c-6.09-2.8-8.35,2.99-12.09,5.42c-0.74,0.48-0.92,1.27-0.23,2.12
		c1.15,1.41,9.53,3.55,10.59,2.31c5.48-6.39,11.93-11.59,19.94-15.87C408.95,242.3,402.28,243.55,396.86,246.9z M432.23,442.77
		c-0.37,4.27-1.01,7.48,0.28,10.37c3.73,8.34,18.83,15.44,28.31,13.42C449.61,461.19,440.86,453,432.23,442.77z M443.65,260.63
		c3.25,1.24,4.15-1.65,6.15-1.72c1.03-0.04,2.2-0.18,2.67,0.8c0.69,1.47-1.04,1.19-1.53,1.78c-1.79,2.14-5.09,1.8-6.61,4.24
		c-2.53,4.04-5.81,6.13-11.48,3.27c1.42,3.77,3.61,5.62,5.31,7.77c0.9,1.14,2.02,1.13,2.92-0.06c5.79-7.74,13.36-13.32,21.66-18.04
		c0.67-0.38,1.44-0.88,1.29-2.4C456.88,254.5,450.58,256.94,443.65,260.63z M47.52,242.79c1.81-0.63,2.18-0.67,2.42-0.86
		c0.65-0.51,1.28-1.06,1.86-1.65c5.74-5.78,12.8-8.22,20.8-7.93c5.97,0.22,11.99,0.4,17.89,1.28c3.89,0.58,6.38-0.23,7.9-4.01
		c-8.97,0.08-17.86-1.6-26.85-0.99C61.67,229.31,53.97,233.7,47.52,242.79z M55.95,239.82c12.99-1.68,24.49,0.63,36.06,0.66
		c1.53,0,3.64,0.92,4.05-1.54c0.42-2.54-1.58-3.02-3.49-3.13c-7.6-0.42-15.2-0.99-22.81-1.06
		C65.14,234.71,60.68,235.95,55.95,239.82z M397.37,475.07c-19.51-0.49-38.33,4.55-57.38,7.99
		C359.67,484.67,378.19,477.8,397.37,475.07z M68.06,347.87c-0.06,0-0.12,0-0.18,0c0,3.48-0.02,6.95,0.01,10.43
		c0.02,1.45,0.52,2.65,2.22,2.73c1.71,0.09,2.99-0.65,3.17-2.43c0.68-6.92,1.37-13.84,0.95-20.8c-0.12-2.04-1.44-2.82-3.31-2.98
		c-2.32-0.2-2.82,1.31-2.85,3.13C68.02,341.25,68.06,344.56,68.06,347.87z M325.91,287.22c-13.57,24.77-18.75,96.63-8.28,117.94
		C309.96,364.51,312.06,325.45,325.91,287.22z M202.8,326.26c0.04,5.84,3.41,10.15,7.28,9.82c3.96-0.33,5.16-3.19,5.15-6.64
		c-0.01-4.44-3.63-8.82-7.2-8.76C203.87,320.74,202.86,323.55,202.8,326.26z M198.61,334.83c-1.6-4.98-2.78-9.95-0.26-14.93
		c2.63-5.21,7.28-7.15,13.1-7.02c-4.42-7.62-4.54-7.64-9.83-1.99c-1.02,1.09-2.11,2.12-3.04,3.28c-2.76,3.44-8.42,5.89-8.36,9.76
		C190.29,328.08,195.42,331.22,198.61,334.83z M383.77,444.8c-8.36-14.64-12.45-30.66-15.08-47.15
		c-2.63-16.51-2.53-33.16-2.45-49.82C363,386.91,369.76,424.85,383.77,444.8z M332.06,459.99c0.01,4.8,2.44,6.67,6.48,7.08
		c5.13,0.51,2.61-3.2,3.03-5.31c0.22-1.13,0.51-2.26,0.71-3.39c0.17-0.95,0.63-2.15-0.65-2.56c-2.19-0.69-4.53-1.68-6.77-0.75
		C332.64,455.99,332.3,458.31,332.06,459.99z M344.31,32.34c-0.47,5.24-0.96,10.48-1.4,15.72c-0.12,1.49-0.06,2.99-0.15,4.48
		c-0.17,2.89,1.44,3.16,3.81,2.97c6.12-0.49,12.26-0.85,18.39-1.14c7.25-0.33,8.02,0.75,5.78-7.97c1.24,5.39-1.81,6.11-5.92,6.14
		c-5.31,0.04-10.63-0.08-15.92,0.77c-3.53,0.57-5.04-0.68-4.77-4.69C344.51,43.21,346.01,37.83,344.31,32.34z M421.89,445.84
		c0,0.83,0.03,1.65,0,2.48c-0.1,2.8,0.46,4.84,3.99,4.83c3.76-0.02,3.75-2.42,3.65-5.04c-0.07-1.98-0.1-3.97-0.26-5.94
		c-0.21-2.53-2.14-2.57-4.02-2.58c-1.88-0.01-3.25,0.65-3.34,2.78C421.86,443.53,421.89,444.68,421.89,445.84z M480.15,275.36
		c-10.94,12.57-17.4,27.44-21.25,43.58C464.68,303.81,470.88,288.89,480.15,275.36z M166.13,247.2c-0.05,0.24-0.09,0.48-0.14,0.72
		c24.72,1.47,49.43,2.93,74.15,4.4c0.02-0.32,0.04-0.65,0.06-0.97C215.5,249.96,190.82,248.58,166.13,247.2z"/>
	<path class="st0" d="M552.58,405.55c-6.03,17.94-12.46,35.63-27.58,48.42c-4.37,3.69-9.17,6.37-14.76,7.6
		c-14.35,1.86-24.65-4.63-32.92-15.66c-7.26-9.69-11.47-20.8-13.89-32.38c-8.43-40.2-4.47-79.22,12.99-116.54
		c5.88-12.56,14.24-23.29,26.83-30.08c8.71-4.7,17.16-4.26,25.63,0.75c8.08,4.78,13.54,11.89,17.51,20.04
		c13.31,27.3,14.6,56.36,12,85.93C557.42,384.46,554.49,394.91,552.58,405.55z M505.83,350.47c0.22,6.9,0,13.39-1.13,19.81
		c-3.61,20.6-8.57,40.57-26.26,54.37c-1.76,1.38-1.41,2.8-0.27,4.31c8.8,11.75,20.96,15.62,33.38,6.85
		c8.65-6.11,13.8-14.83,17.68-24.32c10.93-26.75,13.18-54.46,8.63-82.85c-1.92-11.96-5.31-23.44-12.55-33.35
		c-9.45-12.95-23.89-14.27-35.32-3.57c-2.08,1.94-2.65,3.18-0.3,5.54c7.03,7.03,10.91,15.8,13.16,25.39
		C505.02,331.92,506.3,341.29,505.83,350.47z M504.38,350.37c-0.83-11.75-1.62-23.87-5.94-35.41c-2.12-5.67-5.07-10.83-9.33-15.2
		c-2.47-2.53-4.65-2.97-6.62,0.56c-1.62,2.9-3.56,5.64-5.02,8.62c-12.22,24.87-15.96,51.28-13.44,78.61
		c0.99,10.77,3.73,21.3,8.3,31.22c2.29,4.98,3.27,5.12,7.66,1.67c3.57-2.81,6.53-6.16,8.93-10
		C500.33,392.16,503.3,371.7,504.38,350.37z M467.43,413.29c1.25,10.48,5.76,19.76,12.17,27.89c11.31,14.33,25.57,15.77,39.64,4.16
		c8.53-7.03,14.05-16.46,18.14-26.57c12.99-32.07,15.33-65.26,9.39-99.12c-2.44-13.9-6.62-27.27-16.32-38.1
		c-14.53-16.22-34.18-13.22-44.74,8.91c0.91-0.75,1.53-1.29,2.17-1.8c14.41-11.48,27.71-9.8,38.78,4.87
		c4.16,5.51,7.04,11.67,9.35,18.14c0.45,1.26,0.52,3.37,2.74,2.74c2.06-0.59,4.13-2.05,5.49,0.92c0.59,1.28,0.71,2.68-0.55,3.64
		c-2.32,1.78-3.14-1.95-5.18-1.55c-1.75,7.8,4.11,2.52,6.26,3.33c-0.37,3.33-5.49,2.74-4.75,6.59c4.17-3.3,4.19-2.87,5.8,1.65
		c1.19,3.34-0.61,6.91,1.8,10.15c0.74,0.99-1.65,4.01,0.41,6.13c0.24,0.24-0.29,1.69-0.83,2.12c-0.82,0.64-1.43-0.2-1.98-0.86
		c-0.93-1.14-1.94-2.21-3.25-3.69c-0.44,6.16,0.99,11.6,0.18,17.12c-0.29,2.02,1.26,4.02,3.53,3.48c2.36-0.56,2.19,0.95,2.39,2.09
		c0.28,1.64-0.27,2.94-2.19,3.28c-1.05,0.18-2.13-1.06-2.98-0.18c0.2,3.68,6.66,4.86,3.41,9.46c-1.61,2.27-3.61-0.06-5.42-0.71
		c-0.31,3.55,4.89,3.83,3.96,7.41c-2.14,0.54-2.7-2.68-4.92-1.75c0.31,2.77,3.06,3.09,4.21,4.82c2.15,3.22,0.03,5.02-5.38,4.45
		c0.92,1.26,2.74,1.15,3.41,2.62c0.6,1.32,0.72,2.55,0.03,3.81c-0.54,0.99-1.59,1.67-2.48,1.08c-4.05-2.7-4.14,0.67-4.95,3.06
		c-4.1,12.12-9.4,23.5-19.12,32.31c-12.38,11.23-26.88,10.17-37.5-2.77C473.49,426.7,470.01,420.32,467.43,413.29z M482.31,447.65
		c12.12,16.53,32.52,15.11,46.39-0.63c0.66-0.75,1.33-1.59,1.01-2.67c-0.2-0.69-0.73-2.07-1.5-1.2c-2.57,2.89-6.52,2.85-9.51,5.27
		c-11.87,9.61-22.69,9.33-34.93,0.02C483.44,448.18,483.03,448.03,482.31,447.65z M554.25,317.84c-1.58-7.46-3.45-15.03-6.42-22.27
		c-1.13-2.76-2.64-5.36-3.84-8.09c-1.19-2.7-3.41-2.7-5.39-1.71c-2.59,1.3-0.08,2.8,0.43,4.05c1.07,2.6,2.56,5.03,3.66,7.62
		c2.8,6.59,4.66,13.48,6.13,20.47c0.43,2.07,1.28,3.44,3.62,3.11C554.21,320.79,554.3,319.43,554.25,317.84z M541.35,418.54
		c11.29-25.43,13.48-52.33,11.61-79.81c-0.18,13.39,0.52,26.81-1.62,40.14C549.18,392.38,546.13,405.63,541.35,418.54z
		 M551.91,395.35c5.93-18.08,7.29-57.35,2.67-69.4c0.63,11.77,2.54,23.27,1.77,34.96C555.59,372.49,554.13,383.96,551.91,395.35z"/>
	<path class="st0" d="M96.29,429.06c-0.01,5.77-3.83,10.99-8.7,11.87c-4.7,0.85-9.39-2.58-11.39-8.36c-1.43-4.13-1.18-8.2,0.95-12
		c1.68-3,4.05-5.35,7.79-5.35c3.96,0,6.98,1.76,8.86,5.34C95.2,423.23,96.21,426.01,96.29,429.06z"/>
	<path class="st0" d="M112.81,422.89c-0.02,4.24-2.93,7.6-6.45,7.46c-3.79-0.15-6.98-4-6.98-8.4c0.01-4.29,2.71-7.66,6.21-7.73
		C109.42,414.14,112.83,418.24,112.81,422.89z"/>
	<path class="st0" d="M391.81,309.2c1.64,0.21,3.96-0.03,4.09,1.45c0.2,2.21-0.09,5.04-1.36,6.7c-2.62,3.42-5.26,6.51-4.89,11.22
		c0.18,2.34-1.56,3.13-3.68,2.95c-2.83-0.25-1.04-1.97-1.03-3.21c0.03-5.89,3.96-10.9,3.77-16.87
		C388.64,309.57,390.34,309.16,391.81,309.2z"/>
	<path class="st0" d="M162.95,352.67c0.05,9.17-5.63,15.42-14.4,14.78c-9.13-0.67-15.89-3.86-16.24-15.62
		c-0.24-8.16,7.58-15.66,16.08-15.71C157.24,336.06,162.9,342.49,162.95,352.67z M142.92,342.56c-1.37,0-2.6,0.32-3.71,1.21
		c-5.01,4.02-4.29,14.74,1.25,18c1.3,0.77,2.69,1.33,4.27,1.07c3.48-0.57,8.92-7.59,8.54-11.02
		C152.85,348.1,146.54,342.46,142.92,342.56z"/>
	<path class="st0" d="M335.39,230.13c-2.66,0.25-7.43-5.94-6.48-8.36c0.59-1.5,2.11-1.42,3.42-1.5c18.75-1.15,37.49-2.31,56.24-3.43
		c3.3-0.2,8.46,4.7,8.34,7.8c-0.09,2.3-1.87,1.96-3.29,2.04c-16.26,1-32.52,1.97-48.78,2.93
		C341.69,229.8,338.54,229.96,335.39,230.13z"/>
	<path class="st0" d="M263.32,231.03c-7.97-0.47-15.94-0.88-23.9-1.46c-2.38-0.17-5.86,1.05-6.17-3.05
		c-0.27-3.53,3.21-7.14,6.85-7.15c3.98-0.02,7.97,0.37,11.95,0.55c4.16,0.18,8.33,0.16,12.46,0.54c2.5,0.23,6.35-0.99,6.12,3.66
		C270.41,228.7,267.42,231.39,263.32,231.03z"/>
	<path class="st0" d="M109.45,343.13c0.03,2.07,0.91,4.68,0.11,7.25c-0.25,0.82,0.23,2.26-1.37,2.18c-1.27-0.06-1.6-1-1.54-2.12
		c0.27-5.27-0.92-10.52-0.03-15.81c0.24-1.43-0.49-3.28,1.9-3.13c2.08,0.13,2.1,1.85,1.96,3.38c-0.13,1.45-0.45,2.88-0.74,4.62
		c2.03,0.16,3.13-0.99,2.74-2.5c-1.21-4.61-0.19-9.38-1.28-13.95c-0.33-1.41-0.25-2.34,1.22-2.65c1.61-0.34,2.76,0.53,2.75,2.09
		c-0.04,6.44,0.13,12.92-0.5,19.31C114.23,346.22,111.12,340.77,109.45,343.13z"/>
	<path class="st0" d="M218.6,281.42c3.59,2.12,5.86,6.46,6.57,9.32c1.04,4.15,4.72,5.16,6.12,8.5c1.64,3.89,4.82,7.13,7.35,10.64
		c2.62,3.65,5.05,7.46,7.97,10.86c2.07,2.41,1.17,7.22,6.24,7.43c-5.51,2.77-11.84,3.96-16.69,2.48c-2.89-0.88-7.53-3.25-10.03-7.27
		c-4.01-6.48-8.98-12.38-13.55-18.52c-1.1-1.49-2.06-3.03-2.23-4.94c-0.46-5.1-3.91-8.38-7.15-11.81c-0.76-0.8-1.8-1.95-1.69-2.82
		c0.17-1.37,1.84-0.99,2.93-1.22c4.7-0.99,9.59-1.04,14.17-2.69L218.6,281.42z M223.66,300.3c-2.47,0.28-4.28,0.51-6.1,0.7
		c-3.47,0.36-4.23,1.51-1.8,4.49c3.37,4.12,6.81,8.27,9.44,12.86c3.18,5.53,7,7.59,13.42,6.02c3.61-0.89,3.74-1.85,1.91-4.42
		c-4.15-5.83-8.33-11.63-12.38-17.52C226.81,300.47,225.19,299.89,223.66,300.3z"/>
	<path class="st0" d="M218.62,281.39c-4.73,0.62-9.46,1.16-14.18,1.88c-5.57,0.85-7.32-0.37-8.29-6.09c-0.2-1.2-1.08-0.43-1.56-0.51
		c-1.7-0.25-2.76-1.47-3.26-2.74c-0.73-1.83,1.51-1.7,2.32-2.55c0,0-0.07,0.04-0.07,0.04c3.14-0.31,6.3-0.47,9.41-0.94
		c6.55-0.99,10.66,0.93,13.06,7.19c0.63,1.64,2.92,1.75,2.54,3.75C218.6,281.42,218.62,281.39,218.62,281.39z"/>
	<path class="st0" d="M251.53,333.24c3.02-0.31,6.1,0.03,6,3.34c-0.09,3.06-2.94,3.98-5.86,4.11c-1.81,0.08-3.61,0.55-5.42,0.75
		c-4.62,0.51-6.54-1.22-7.01-6.27c-0.01-0.09,0.34-0.25,0.32-0.3c-0.98-2.57-0.98-2.6,2.34-3.07c3.29-0.46,6.58-0.86,9.88-1.24
		c0.95-0.11,2.34-0.45,2.53,0.79C254.6,333.19,252.59,332.24,251.53,333.24z"/>
	<path class="st0" d="M454.83,326.28c-6.69,30.8-7.4,61.52,0.52,92.98C445.59,410.76,445.43,340.35,454.83,326.28z"/>
</g>
</svg>
