<?xml version="1.0" encoding="utf-8"?>
<!-- Generator: Adobe Illustrator 26.4.1, SVG Export Plug-In . SVG Version: 6.00 Build 0)  -->
<svg version="1.1" id="Layer_1" xmlns="http://www.w3.org/2000/svg" xmlns:xlink="http://www.w3.org/1999/xlink" x="0px" y="0px"
	 viewBox="0 0 122.1 67.2" style="enable-background:new 0 0 122.1 67.2;" xml:space="preserve">
<style type="text/css">
	.st0{stroke:#000000;stroke-width:0.25;stroke-miterlimit:10;}
</style>
<g>
	<path class="st0" d="M26,15c1,0.6,1.4,1.3,1.3,2.3c-0.1,0.9-0.7,1.9-1.6,3s-1.9,2-2.8,2.8s-1.7,1.4-2.3,1.7c-0.1,0-0.2,0-0.2-0.1
		s-0.1-0.2,0-0.2c1.5-1.3,2.6-2.6,3.5-3.7c0-0.1,0.2-0.2,0.4-0.5c0.2-0.2,0.3-0.4,0.5-0.5c0.1-0.1,0.2-0.3,0.4-0.5
		c0.1-0.2,0.2-0.4,0.3-0.6c0.2-0.6,0.2-1.1,0.1-1.5c-0.2-0.4-0.4-0.7-0.7-0.9s-0.7-0.3-1.2-0.4c-1.3-0.2-2.8,0-4.6,0.6
		c-1.8,0.6-3.5,1.3-5.1,2.2c-1.9,1-3.4,2.1-4.5,3.2c-1.5,1.1-2,2.3-1.8,3.7s0.9,2.5,2.1,3.4c0.6,0.4,1.6,1.1,3.3,2.1
		c1.7,1,2.9,1.9,3.7,2.5c1.8,1.4,2.8,3.1,3,5c0.3,1.9-0.3,3.8-1.7,5.6c-0.4,0.6-1,1.2-1.6,1.7s-1.2,1-1.8,1.4s-1.3,0.8-2.1,1.3
		s-1.6,0.8-2.1,1.1c-0.6,0.3-1.3,0.6-2.3,1s-1.7,0.7-2.1,0.8c-0.4,0.2-1.2,0.4-2.2,0.8c-0.2,0.1-0.4,0-0.6-0.1C3.1,52,3,51.8,3,51.6
		s0.2-0.4,0.4-0.5c1.2-0.4,2.1-0.7,2.8-1s1.6-0.6,2.7-1.1s2.1-0.9,2.9-1.3s1.6-0.9,2.4-1.6s1.6-1.3,2.2-2c0.8-0.9,1.3-1.8,1.7-2.8
		c0.4-1,0.5-2,0.3-3.1s-0.7-2-1.5-2.9c-0.4-0.4-0.8-0.8-1.4-1.2c-0.5-0.4-1-0.7-1.4-1s-1-0.6-1.6-1c-0.7-0.4-1.2-0.7-1.5-0.9
		c-0.1-0.1-0.5-0.3-1-0.6s-0.8-0.5-1-0.7s-0.6-0.4-1-0.7c-0.4-0.3-0.8-0.6-1-0.9s-0.5-0.6-0.7-1s-0.4-0.8-0.4-1.2
		c-0.4-1.9,0.6-3.8,3-5.8c2.3-2,5-3.5,8-4.4C21.3,14.4,24.4,14.1,26,15z"/>
	<path d="M27.9,37.8c0.1,0,0.2,0,0.4,0.2s0.1,0.3,0.1,0.4c-0.1,0.4-0.4,0.7-0.8,1.1c-0.4,0.3-0.7,0.6-0.9,0.7
		c-0.2,0.2-0.6,0.4-1.2,0.6c-1.4,0.7-2.5,1-3.3,0.7c-0.6-0.2-1.1-0.5-1.3-1c-0.2-0.5-0.2-1-0.1-1.5c0.2-0.5,0.4-1.1,0.6-1.5
		c0.2-0.5,0.6-0.9,0.9-1.3c1.1-1.4,2-2.1,2.9-2.2c0.4-0.1,0.8,0,1.1,0.2s0.5,0.5,0.5,1c0,1-0.4,1.8-1.3,2.5s-1.8,1-2.8,0.9
		c-0.4,0.8-0.3,1.2,0.1,1.3c0.1,0,0.4,0,0.9-0.2c0.4-0.1,1-0.4,1.7-0.7c0.1-0.1,0.4-0.2,0.8-0.4s0.7-0.4,1-0.5
		C27.4,37.9,27.6,37.8,27.9,37.8z M25.1,35.6c-0.5,0.1-1.2,0.7-1.8,1.9c0.5-0.1,0.9-0.3,1.3-0.6c0.3-0.2,0.5-0.5,0.7-0.8
		c0,0,0-0.1,0.1-0.2c0.1-0.1,0.1-0.2,0.1-0.2C25.4,35.5,25.3,35.5,25.1,35.6z"/>
	<path d="M46.3,3.4c-1,2.2-2.2,4.4-3.5,6.9c-1.3,2.4-2.8,5-4.3,7.8s-2.8,5-3.8,6.8c-1.2,2.4-2.5,5.3-3.8,8.8
		c-1.3,3.7-1.6,5.5-0.8,5.2c0,0,0,0,0.1,0c0.5-0.2,1.2-0.8,2.2-1.9c1-1.1,1.6-1.7,1.8-1.9c0.1-0.1,0.3-0.1,0.4,0
		c0.2,0.1,0.2,0.2,0.1,0.4c0,0.1-0.2,0.4-0.5,0.8c-0.3,0.5-0.5,0.9-0.8,1.2c-0.2,0.3-0.5,0.8-0.9,1.3s-0.7,1-1,1.4s-0.7,0.8-1,1.1
		c-0.4,0.3-0.7,0.6-1,0.8s-0.6,0.2-0.9,0.1c-1.5-0.4-1.8-2-0.9-4.9c0.6-2,1.3-4,2.1-6c0.8-2,1.7-4,2.7-6c1-2,2-3.9,3-5.7
		c1-1.9,2.1-3.8,3.3-5.7c1.2-2,2.4-3.8,3.4-5.4s2.2-3.4,3.5-5.3C45.9,2.9,46,2.9,46.2,3S46.4,3.2,46.3,3.4z"/>
	<path d="M42.7,36c0,0.1-0.2,0.4-0.1,0.5s-0.1,0.3-0.2,0.5c-0.3,0.5-0.9,1.1-0.9,0.5c0.1-0.9,0-1.1-0.6-1.2
		c-0.4-0.1-0.5,0.2-0.6,0.3c-0.2,0.3-0.5,1.2-0.7,1.5c-0.3,0.5-0.6,0.8-0.8,1.1s-0.5,0.5-0.9,0.7s-0.8,0.2-1.1,0.1
		c-0.5-0.2-0.8-0.5-0.9-1.1c-1,1.4-1.8,2.1-2.7,2c-0.3-0.1-0.5-0.2-0.7-0.3s-0.3-0.3-0.3-0.5s-0.1-0.4-0.1-0.7s0.1-0.5,0.2-0.8
		s0.2-0.6,0.3-0.8s0.2-0.5,0.4-0.8s0.3-0.6,0.4-0.7s0.2-0.4,0.4-0.6c0.2-0.2,0.2-0.4,0.3-0.4c0.1-0.2,0.3-0.3,0.6-0.2
		s0.3,0.3,0.3,0.5c-0.1,0.2-0.2,0.5-0.3,0.8c-0.2,0.4-0.3,0.7-0.4,1c-0.1,0.3-0.2,0.6-0.3,0.9c-0.1,0.5-0.1,0.8,0,0.8
		c0,0,0.3-0.4,0.8-1.1c0.1-0.2,0.3-0.5,0.6-1s0.6-1,0.8-1.3s0.5-0.6,0.8-0.9c0.2-0.2,0.5-0.3,0.8-0.2s0.5,0.4,0.5,0.7
		c0,0.6-0.1,1.1-0.3,1.8c0,0.1-0.1,0.2-0.2,0.5c-0.2,0.5-0.3,0.8-0.3,0.8s0.2-0.1,0.4-0.4c0.1-0.1,0.2-0.2,0.3-0.4
		c0.2-0.2,0.3-0.5,0.5-0.8s0.4-0.6,0.6-0.9c0.2-0.2,0.4-0.5,0.7-0.7c0.2-0.1,0.3-0.1,0.6-0.1c0.2,0,0.2,0,0.3,0.1
		c0.3,0.3,0.2,0.3,0.4,0.6c0.1,0.2,0.3,0,0.4-0.1c0.2-0.2,0.5-0.5,0.8-0.4C42.7,35.3,42.7,35.8,42.7,36z"/>
	<path d="M47.8,34.6c0.3-0.3,0.6-0.3,0.9,0s0.3,0.5,0.2,0.9c-1.6,3.4-4,8.4-7.1,15.2c-0.1,0.2-0.4,0.8-0.8,1.7s-0.7,1.5-0.8,1.8
		s-0.4,0.8-0.8,1.6c-0.4,0.8-0.7,1.4-0.8,1.7s-0.5,0.9-0.8,1.6c-0.3,0.7-0.6,1.3-0.9,1.8s-0.5,1-0.9,1.6c-0.3,0.6-0.7,1.2-1,1.7
		c-0.3,0.6-0.6,1.1-1,1.7c-0.1,0.2-0.3,0.3-0.6,0.2s-0.3-0.3-0.2-0.5c0.6-1.6,1.3-3.4,2.2-5.4s1.6-3.5,2-4.4s1.3-2.7,2.5-5.2
		c1.9-3.9,3.9-8,6-12.1c-1.3,1.1-2.6,1.7-3.8,1.5c-0.3,0-0.5-0.2-0.6-0.4s-0.1-0.4-0.2-0.6c0-0.2,0-0.4,0-0.6s0-0.4,0.1-0.7
		s0.1-0.6,0.2-0.7c0-0.2,0-0.2,0.1-0.6c0.1-0.3,0.1-0.5,0.2-0.6c0-0.2,0.1-0.3,0.3-0.3s0.3,0,0.4,0.1s0.1,0.2,0.1,0.4
		c-0.2,1.3,0.1,1.9,0.9,1.7C44.5,37.4,45.9,36.4,47.8,34.6z"/>
	<path d="M55.6,36.6c0.2-0.1,0.4-0.1,0.6,0c0.2,0.1,0.2,0.3,0.2,0.5c-0.1,0.4-0.2,0.8-0.5,1.2c-0.2,0.4-0.5,0.8-0.7,1
		s-0.6,0.5-1,0.9c0,0-0.1,0.1-0.2,0.2c-0.1,0.1-0.2,0.2-0.2,0.2c-0.1,0.1-0.2,0.1-0.2,0.2c-0.1,0.1-0.2,0.1-0.3,0.2
		c-0.1,0.1-0.2,0.1-0.3,0.2c-0.1,0.1-0.2,0.1-0.3,0.1s-0.2,0-0.3,0s-0.2,0-0.3-0.1c-0.3-0.1-0.5-0.3-0.6-0.5
		c-0.1-0.3-0.2-0.5-0.2-0.8s0-0.6,0-0.8s0-0.5,0.1-0.7c0-0.3,0.1-0.5,0.1-0.7s0.1-0.5,0.2-0.7c0.1-0.3,0.1-0.5,0.2-0.7
		c-0.1,0.2-0.3,0.4-0.5,0.6c-0.2,0.3-0.4,0.4-0.5,0.5c-0.9,1-1.5,1.6-1.8,1.8c-0.2,0.2-0.5,0.3-0.8,0.1s-0.5-0.4-0.3-0.8
		c0.4-1,0.8-2,1.1-2.9c0.1-0.3,0.3-0.4,0.6-0.3c0.3,0.1,0.4,0.3,0.4,0.6c0,0,0,0.1,0,0.2s0,0.1,0,0.1c0.5-0.5,0.8-0.8,0.9-0.9
		c0.2-0.2,0.4-0.4,0.5-0.5s0.2-0.2,0.4-0.4c0.2-0.1,0.4-0.2,0.5-0.3c0.2,0,0.4-0.1,0.6-0.1c0.2,0,0.4,0.1,0.6,0.2
		c0.2,0.2,0.2,0.4,0.2,0.6c0,0.4-0.1,1.1-0.3,2.2c-0.2,1-0.3,1.7-0.4,2.2c0.2-0.2,0.4-0.4,0.6-0.7c0.2-0.3,0.4-0.5,0.4-0.5
		s0.1-0.1,0.2-0.2s0.2-0.2,0.2-0.2s0.1-0.1,0.2-0.2c0.1-0.1,0.2-0.2,0.2-0.2c0.1,0,0.1-0.1,0.2-0.2c0.1-0.1,0.2-0.1,0.3-0.2
		C55.4,36.7,55.5,36.7,55.6,36.6z"/>
	<path class="st0" d="M93.9,26.6c0.4,0.1,0.6,0.3,0.7,0.7c0.1,0.4,0,0.7-0.3,1c-0.2,0.3-0.6,0.4-1,0.2c-1.6-0.4-3.2-0.7-5-0.9
		c-2.1,4.9-3.8,8.8-5,11.9c-1.6,4.1-3,8-4.2,11.7c-0.3,1.1-0.9,3-1.6,5.7s-1.3,4.8-1.8,6.2c-0.1,0.3-0.3,0.4-0.5,0.5
		c-0.3,0.1-0.5,0.1-0.8-0.1c-0.2-0.1-0.3-0.4-0.3-0.7c0.1-0.9,0.2-1.8,0.4-2.7s0.4-1.8,0.6-2.8s0.5-1.8,0.7-2.7
		c0.2-0.8,0.5-1.7,0.9-2.8c0.4-1,0.7-1.9,1-2.6c0.3-0.7,0.6-1.6,1.1-2.7s0.8-2,1.1-2.6c0.2-0.6,0.6-1.5,1.1-2.6
		c0.5-1.2,0.8-2,1.1-2.5c1.3-3.2,3-7,5.1-11.4c-3-0.1-6.9,0.4-11.9,1.3c-2.4,5.7-5.1,12.4-7.9,20.2c-0.2,0.4-0.4,0.7-0.8,0.7
		s-0.7-0.1-1-0.4s-0.3-0.7-0.1-1.1c1.1-2.3,2.5-5.6,4.4-9.9s3.2-7.4,4-9.2c-2.7,0.5-4.5,0.9-5.6,1.1c-0.1,0-0.2,0-0.3-0.1
		c-0.1-0.1-0.1-0.2-0.1-0.3c0-0.1,0.1-0.2,0.2-0.2c0.7-0.1,1.8-0.4,3.2-0.7s2.4-0.6,3.1-0.7c2.2-4.9,4.3-9.1,6.4-12.6
		c0.1-0.1,0.2-0.2,0.3-0.2s0.2,0.1,0.3,0.2s0.1,0.2,0,0.4c-1.9,3.7-3.7,7.7-5.5,12c4.8-1.1,8.8-1.6,12-1.7c0.1-0.2,0.2-0.4,0.3-0.8
		c0.7-1.4,1.2-2.5,1.6-3.3s0.9-1.7,1.6-2.9c0.7-1.1,1.4-2.1,2.1-3c0.1-0.2,0.3-0.2,0.5,0c0.2,0.1,0.2,0.3,0.1,0.5
		c-0.7,0.9-1.3,1.9-2,3.1S91,22,90.7,22.6s-0.8,1.8-1.5,3.5C90.7,26.2,92.3,26.3,93.9,26.6z"/>
	<path d="M93.1,37.2c0.2,0,0.3,0.1,0.4,0.2s0.1,0.4,0,0.5c-0.6,0.8-1.6,1.3-2.7,1.4c-0.3,0.5-0.6,1-1,1.3c-0.3,0.2-0.6,0.5-0.9,0.6
		s-0.7,0.3-1,0.3c-0.4,0-0.7-0.1-1-0.4c-0.1-0.1-0.2-0.3-0.3-0.4c-0.1-0.2-0.1-0.3-0.1-0.4c0-0.1,0-0.3,0.1-0.5s0.1-0.3,0.2-0.4
		c0-0.1,0.1-0.2,0.3-0.5c0.1-0.2,0.2-0.3,0.2-0.4c0.1-0.2,0.3-0.3,0.6-0.2c0.2,0.1,0.3,0.3,0.2,0.5c0,0,0,0.1-0.1,0.3
		c-0.1,0.1-0.1,0.2-0.1,0.3s0,0.2,0,0.2s0.2,0.3,0.3,0.3s0.3,0,0.4-0.1c0.3-0.1,0.4-0.3,0.7-0.8c-0.4-0.2-0.8-0.4-1.2-0.6
		c-0.3-0.3-0.6-0.6-0.8-1c-0.2-0.5-0.3-1-0.2-1.5s0.4-0.9,0.9-1.2c1.1-0.8,2-0.9,2.7-0.3c0.8,0.8,1,1.9,0.8,3.3
		C92.3,37.4,92.9,37.2,93.1,37.2z M89.9,38c0.2-0.8,0.2-1.5,0-2c-0.2-0.4-0.5-0.5-0.9-0.4s-0.6,0.5-0.6,1c0,0.3,0.2,0.5,0.4,0.8
		c0.3,0.2,0.5,0.4,0.8,0.5C89.7,37.9,89.8,37.9,89.9,38C89.8,38,89.9,38,89.9,38z"/>
	<path d="M99,37.8c0.1,0,0.2,0,0.3,0.2s0.1,0.3,0.1,0.4c-0.2,0.4-0.4,0.7-0.8,1.1c-0.4,0.3-0.7,0.6-0.9,0.7
		c-0.2,0.2-0.6,0.4-1.2,0.6c-1.4,0.7-2.5,1-3.3,0.7c-0.6-0.2-1.1-0.5-1.3-1c-0.2-0.5-0.2-1-0.1-1.5c0.2-0.5,0.4-1.1,0.6-1.5
		c0.2-0.5,0.6-0.9,0.9-1.3c1.1-1.4,2-2.1,2.9-2.2c0.4-0.1,0.8,0,1.1,0.2s0.5,0.5,0.5,1c0,1-0.4,1.8-1.3,2.5s-1.8,1-2.8,0.9
		c-0.3,0.8-0.3,1.2,0.1,1.3c0.1,0,0.4,0,0.9-0.2c0.4-0.1,1-0.4,1.7-0.7c0.2-0.1,0.4-0.2,0.8-0.4s0.7-0.4,1-0.5
		C98.4,37.9,98.7,37.8,99,37.8z M96.2,35.6c-0.6,0.1-1.2,0.7-1.8,1.9c0.5-0.1,0.9-0.3,1.3-0.6c0.3-0.2,0.5-0.5,0.7-0.8
		c0,0,0-0.1,0.1-0.2c0.1-0.1,0.1-0.2,0.1-0.2C96.5,35.5,96.4,35.5,96.2,35.6z"/>
	<path d="M115.4,5.6c-0.9,2.1-2.1,4.7-3.6,7.8c-1.4,3.2-2.8,6.1-4,8.7s-2.4,5.2-3.5,7.5c-0.9,1.9-1.8,4.1-2.7,6.5
		c1-0.9,1.9-1.9,2.4-2.4c0.4-0.4,0.3-0.3,0.4-0.4s0.3-0.3,0.5-0.4s0.3-0.2,0.5-0.3c0.6-0.3,1.1-0.3,1.5-0.1s0.7,0.7,0.8,1.3
		c0.1,1.1-0.5,2.2-1.9,3.3c-0.1,0-0.3,0.2-0.8,0.6c-0.1,0.1-0.5,0.3-1.1,0.9c-0.7,0.5-1.2,0.9-1.5,1.2c0.1,0.1,0.3,0.2,0.4,0.4
		c0.2,0.2,0.3,0.3,0.5,0.6s0.3,0.4,0.4,0.5c0.2,0.2,0.2,0.3,0.4,0.4c0.1,0.1,0.4,0.4,0.4,0.4l0.2,0.1c0.3,0.1,0.8,0.1,1,0
		c0.1,0,0.8-0.5,0.8-0.5c0.2-0.2,0.6-0.5,1-0.7c0.6-0.3,1.2-0.7,1.5-0.8c0.7-0.4,0.4-0.1,0.8-0.2c0.4-0.1,1,0.1,0,0
		c-0.2,0-0.4,0.2-0.5,0.4c-0.2,0.3,0.8,0.6,0.4,0.8c-0.3,0.2-1.3,0.6-1.7,0.8c-0.3,0.1-0.5,0.3-0.9,0.6c0,0-0.2,0.2-0.4,0.3
		s-0.4,0.3-0.5,0.4s-0.3,0.2-0.5,0.3s-0.4,0.1-0.6,0.1c-0.4,0-0.8-0.3-1.3-0.8s-1-1-1.4-1.5s-0.8-0.7-1.1-0.7
		c-0.6,0.4-1.2,0.7-1.7,0.7c0,0.1-0.1,0.3-0.2,0.6s-0.2,0.5-0.2,0.7c-0.2,0.7-0.6,2-1.1,3.9s-1,3.5-1.5,4.8s-1.1,2.5-1.9,3.5
		c-0.2,0.2-0.4,0.3-0.7,0.3s-0.5-0.3-0.5-0.6c0-1.2,0.1-2.5,0.5-3.9c0.3-1.3,0.9-3,1.6-4.8c0.7-1.9,1.2-3.1,1.3-3.8
		c0.4-1.3,1.2-3.5,2.4-6.5c1.2-3,2.6-6.4,4.3-10.4c1.7-3.9,3.5-7.8,5.5-11.5c2-3.8,3.8-6.5,5.4-8.3c0.2-0.2,0.3-0.2,0.5-0.1
		C115.4,5.2,115.5,5.4,115.4,5.6z M103.3,35.8c-0.9,0.8-1.3,1.4-2.4,2.4l-0.1,0.1c0,0-0.1,0.2-0.2,0.4s-0.1,0.3-0.2,0.5
		c0.3-0.2,0.8-0.5,1.6-1c0.8-0.5,1.4-0.9,1.9-1.3s1-0.8,1.4-1.2c0.1-0.1,0.2-0.2,0.4-0.4c0.1-0.2,0.3-0.3,0.4-0.6
		c0.1-0.2,0.2-0.4,0.1-0.6c-0.1-0.2-0.2-0.2-0.5-0.3c-0.1,0-0.3,0.1-0.6,0.3c-0.3,0.2-0.6,0.5-0.9,0.8
		C103.8,35.4,103.3,35.8,103.3,35.8z"/>
	<path d="M117.7,36.2c1.2,1-2.1,1.8-2.8,2.3c-1.9,1-3.8,1.8-5.6,2.9c-0.8,0.4-2-0.3-1-0.8c0.5-0.3,1.2-0.8,1.9-1
		c0.8-0.2,0.1-1.4-0.2-2c-0.2-0.4-0.2-0.3-0.4-0.7c-0.3-0.5-0.5-1.1-0.6-1.6c-0.3-1.3,1.2-3.1,2.3-2c0.2,0.3,0,0.8-0.4,0.7
		c-2-0.3-0.1,2.7,0.8,4.8c1.1-0.4,2.3-1.1,3.3-1.6c0.8-0.4,1-0.4,1.8-0.8C117.3,36.2,117.5,36.1,117.7,36.2z"/>
</g>
</svg>
