<?xml version="1.0" encoding="utf-8"?>
<!-- Generator: Adobe Illustrator 26.4.1, SVG Export Plug-In . SVG Version: 6.00 Build 0)  -->
<svg version="1.1" id="Layer_1" xmlns="http://www.w3.org/2000/svg" xmlns:xlink="http://www.w3.org/1999/xlink" x="0px" y="0px"
	 viewBox="0 0 275.77 126.35" style="enable-background:new 0 0 275.77 126.35;" xml:space="preserve">
<style type="text/css">
	.st0{fill:#FFFFFF;}
</style>
<g>
	<path d="M0.02,56.91c2.39-7.18,7.81-11.94,13.41-16.45c12.47-10.03,26.39-17.75,40.63-24.9C65.15,9.99,76.43,4.84,88.33,1.22
		c1.91-0.58,3.91-1.04,5.89-1.19c3.72-0.29,5.76,1.91,4.96,5.55c-0.61,2.77-1.58,5.53-2.79,8.1c-3.31,7.01-6.99,13.84-10.18,20.9
		c-1.35,2.98-2.02,6.32-2.64,9.56c-0.46,2.42,0.5,4.48,2.88,5.74c0.48,0.26,0.91,1.38,0.75,1.93c-0.3,1.05-1.26,0.94-2.14,0.53
		c-2.61-1.24-4.09-3.28-4.35-6.16c-0.4-4.32,0.86-8.36,2.62-12.17c3.21-6.93,6.73-13.71,10.03-20.59c1.11-2.32,2.11-4.73,2.82-7.2
		c0.83-2.85-0.03-3.84-2.86-3.17c-3.9,0.92-7.81,1.96-11.53,3.42C59.57,15.18,38.44,25.99,18.93,39.8
		c-5.07,3.59-9.96,7.47-13.57,12.64c-1.03,1.47-1.81,3.21-2.29,4.94c-0.67,2.43,0.18,4.33,2.57,5.13c3.13,1.05,6.4,2.09,9.66,2.26
		c12.8,0.65,25.62,0.89,38.42,1.41c8.84,0.36,17.69,0.72,26.49,1.53c3.76,0.35,7.49,1.65,11.11,2.86c2.7,0.91,4.7,2.86,5.4,5.94
		c2.81-1.2,5.54-2.34,8.23-3.57c0.33-0.15,0.6-0.78,0.64-1.21c0.71-8.71,1.18-17.44,2.12-26.12c0.81-7.53,2.03-15.04,4.8-22.17
		c0.59-1.52,1.52-2.95,2.5-4.28c0.73-0.99,1.85-1.5,3.21-1.14c1.34,0.36,1.93,1.38,1.91,2.56c-0.09,4.23,0.09,8.53-0.58,12.68
		c-1.62,10.06-5.11,19.52-10.09,28.43c-0.3,0.54-0.58,1.18-0.58,1.77c0.02,7.87,0.08,15.74,0.18,23.61c0.01,0.7,0.36,1.4,1.01,2.25
		c0.55-0.88,1.16-1.72,1.63-2.63c1.57-3.06,3.01-6.2,4.68-9.22c0.88-1.59,2.05-3.04,3.22-4.45c0.88-1.06,2.23-1.96,3.46-1.21
		c0.97,0.59,1.93,1.97,2.03,3.07c0.32,3.48,0.34,6.99,0.29,10.49c-0.09,5.86-0.34,11.72-0.46,17.59c-0.02,0.98,0.31,1.98,0.47,2.96
		c0.16,0.04,0.33,0.08,0.49,0.13c0.44-0.53,1.03-1,1.3-1.6c2.16-4.75,4.37-9.48,6.34-14.31c2.43-5.95,4.66-11.98,6.94-17.99
		c0.22-0.57,0.27-1.22,0.32-1.83c0.26-3.14,3.07-5.94,6.21-6.17c3.87-0.28,6.61,2.9,6.38,7.43c-0.04,0.74-0.12,1.47-0.21,2.46
		c3.92-0.37,7.2-1.45,9.65-4.65c1.52-1.99,3.27-3.86,5.18-5.47c1.86-1.57,3.52-1.51,4.47-0.38c1.13,1.34,0.91,3.31-0.96,4.85
		c-1.47,1.22-3.19,2.38-4.99,2.89c-1.81,0.51-2.67,1.52-3.28,3.06c-0.21,0.53-0.55,1.09-0.53,1.62c0.05,1.21-0.12,2.82,0.56,3.49
		c0.67,0.65,2.39,0.71,3.46,0.4c4.42-1.31,8.04-4.09,11.77-6.69c2.27-1.58,3.28-3.4,3.56-6.3c1.21-12.64,2.76-25.25,4.28-37.86
		c0.4-3.3,1.12-6.57,1.67-9.85c0.17-0.99,0.51-1.89,1.69-1.74c1.3,0.17,1.33,1.17,1.17,2.24c-1.35,9.21-2.78,18.41-4,27.63
		c-0.82,6.25-1.34,12.54-2.05,19.27c2.96-3.53,5.53-6.74,8.26-9.82c3.85-4.34,7.82-8.58,11.75-12.86c0.23-0.25,0.48-0.49,0.73-0.74
		c0.7-0.7,1.48-1.27,2.37-0.4c0.89,0.86,0.41,1.65-0.32,2.37c-1.23,1.21-2.53,2.36-3.64,3.68c-6.24,7.37-12.45,14.76-18.6,22.2
		c-0.6,0.72-0.89,1.84-0.99,2.81c-0.26,2.68-0.34,5.38-0.51,8.41c2.89,0.49,5.68,1.13,8.5,1.41c7.67,0.76,15.28,0.42,22.62-2.23
		c4.26-1.54,7.94-3.87,10.14-8.07c0.6-1.14,0.64-1.82-0.63-2.62c-3.86-2.4-5.24-5.98-3.71-10.25c2.57-7.21,7.74-11.95,14.86-14.56
		c0.99-0.36,2.15-0.39,3.22-0.38c2.54,0.04,4.34,1.46,4.67,3.97c0.42,3.24,0.59,6.52,0.74,9.79c0.02,0.45-0.57,1.21-1,1.31
		c-0.44,0.1-1.28-0.3-1.5-0.72c-0.38-0.73-0.52-1.63-0.58-2.48c-0.16-2.18-0.17-4.37-0.36-6.55c-0.18-2.04-1.33-2.95-3.31-2.39
		c-6.79,1.91-11.63,6.12-14.01,12.83c-1.07,3.03-0.02,5.7,2.8,7.19c2.06,1.09,4.36,1.73,6.57,2.49c3.3,1.14,6.62,2.26,9.95,3.3
		c0.5,0.16,1.22,0.01,1.7-0.25c1.96-1.09,3.86-2.27,5.78-3.42c0.92-0.56,1.78-0.61,2.34,0.44c0.54,1.02-0.13,1.59-0.93,2.06
		c-1.92,1.12-3.84,2.25-5.83,3.42c1.35,2.44,1.04,4.81,0.46,7.18c-1.27,5.13-3.51,9.77-7.55,13.26c-1.32,1.14-3.12,2.06-4.83,2.35
		c-3.79,0.65-6.27-2.08-5.79-5.91c0.5-3.94,2.5-7.15,5.12-9.95c2.26-2.43,4.78-4.62,7.46-7.19c-4.08-1.19-8.09-2.36-12.26-3.57
		c-1.34,3.59-3.59,6.42-6.74,8.51c-5.17,3.42-11,4.78-17.07,5.37c-6.7,0.65-13.32,0.24-19.86-1.36c-0.27-0.07-0.56-0.06-1.05-0.11
		c-0.06,0.66-0.16,1.26-0.17,1.86c-0.15,7.71-0.28,15.41,0.96,23.07c0.1,0.64-0.07,1.55-0.48,1.99c-0.82,0.87-2.06,0.22-2.24-1.23
		c-0.41-3.25-0.88-6.51-0.99-9.77c-0.16-5.17-0.07-10.35-0.02-15.53c0.01-1.12-0.16-1.89-1.24-2.53c-2.38-1.41-2.01-3.6-1.12-6.08
		c-1.99,1.23-3.64,2.41-5.44,3.31c-2.04,1.02-4.14,2.04-6.33,2.61c-4.4,1.14-7.2-1.28-7.03-5.8c0.02-0.45,0-0.9,0-1.24
		c-2.28,0.4-4.54,0.77-6.77,1.22c-0.36,0.07-0.75,0.47-0.95,0.81c-0.73,1.25-1.59,2.37-3.19,2.2c-1.59-0.17-1.99-1.49-2.37-2.82
		c-0.13-0.47-0.55-0.95-0.97-1.22c-0.86-0.55-1.82-0.96-2.96-1.53c-1.04,2.72-2.05,5.44-3.11,8.15c-2.77,7.05-5.53,14.1-8.4,21.11
		c-0.55,1.35-1.53,2.57-2.5,3.69c-2.28,2.6-4.89,2.07-5.65-1.32c-0.6-2.71-0.8-5.58-0.75-8.37c0.12-6.73,0.5-13.45,0.77-20.17
		c0.04-0.95,0.01-1.9,0.01-2.86c-0.22-0.11-0.44-0.22-0.67-0.33c-0.73,0.84-1.63,1.59-2.16,2.55c-1.66,3.02-3.11,6.15-4.76,9.17
		c-0.93,1.71-1.93,3.42-3.17,4.9c-1.68,2.01-3.57,1.74-4.47-0.73c-0.83-2.29-1.28-4.76-1.64-7.18c-0.34-2.26-0.33-4.58-0.5-7.15
		c-2.94,1.31-5.8,2.58-8.65,3.89c-0.26,0.12-0.48,0.49-0.57,0.79c-3.19,10.2-9.1,18.9-15.29,27.42
		c-3.73,5.13-7.74,10.05-12.86,13.86c-2.31,1.72-4.93,3.21-7.64,4.15c-3.75,1.31-6.88-0.73-7.06-4.68c-0.12-2.6,0.45-5.41,1.4-7.85
		c2.87-7.4,8.07-13.18,13.83-18.47c7.08-6.5,15.06-11.67,23.58-16.07c1.93-1,2.32-2.48,0.69-4.01c-1.25-1.18-2.88-2.33-4.51-2.67
		c-5.04-1.06-10.14-2.21-15.26-2.44C59,69.15,44.85,69.04,30.72,68.62c-7.64-0.23-15.29-0.5-22.75-2.4C7.3,66.05,6.66,65.81,6,65.6
		c-2.89-0.9-5.16-2.48-6-5.59C0.02,58.98,0.02,57.95,0.02,56.91z M92.54,81.83c-2.66,1.57-5.37,3.06-7.97,4.71
		c-9.05,5.73-17.28,12.38-23.47,21.26c-2.41,3.46-4.48,7.1-4.97,11.41c-0.41,3.57,1.42,5.11,4.73,3.66c2.23-0.97,4.38-2.3,6.26-3.84
		c6.47-5.31,11.29-12.05,15.93-18.92C86.87,94.44,90.38,88.59,92.54,81.83z M243.94,78.57c-0.17-0.08-0.34-0.16-0.51-0.25
		c-4.08,2.96-8.01,6.1-10.56,10.58c-0.85,1.5-1.41,3.26-1.7,4.97c-0.37,2.16,1.09,3.35,3.13,2.56c1.29-0.5,2.55-1.36,3.49-2.38
		c3.24-3.48,5.1-7.72,6.11-12.32C244.13,80.73,243.94,79.63,243.94,78.57z M109.54,54.25c0.19,0.03,0.38,0.07,0.57,0.1
		c4.53-10.66,7.72-21.63,7.96-33.29c-0.3-0.12-0.6-0.23-0.9-0.35c-0.63,1.21-1.53,2.36-1.84,3.65c-1.6,6.62-3.15,13.25-4.5,19.93
		C110.16,47.56,109.95,50.93,109.54,54.25z M149.82,74.3c1-1.68,0.79-3.25,0.49-4.74c-0.33-1.64-1.62-2.65-2.99-2.58
		c-1.58,0.08-3.53,1.74-3.58,3.23c-0.06,1.74,1.23,2.38,2.16,2.75c0.96-0.99,1.75-2.45,2.47-2.42
		C150.78,70.64,148.94,72.91,149.82,74.3z"/>
	<path d="M260.34,93.31c-0.25,0.01-2.93,0.02-3.18,0.02c-6.05,0.03-3.31,0.54-7.04,0.54c-1.03,0-2.1-0.02-2.09-1.41
		c0.01-1.36,1.06-1.42,2.1-1.42c7.82-0.04,15.63-0.09,23.45-0.13c0.97,0,2.15-0.11,2.19,1.3c0.05,1.48-1.13,1.52-2.2,1.53
		C269.74,93.76,263.86,93.14,260.34,93.31z"/>
	<path class="st0" d="M92.54,81.83c-2.16,6.76-5.67,12.61-9.49,18.27c-4.64,6.87-9.46,13.61-15.93,18.92
		c-1.88,1.54-4.03,2.87-6.26,3.84c-3.32,1.44-5.14-0.09-4.73-3.66c0.49-4.3,2.56-7.95,4.97-11.41c6.19-8.88,14.42-15.53,23.47-21.26
		C87.17,84.89,89.88,83.39,92.54,81.83z"/>
	<path class="st0" d="M243.94,78.57c0,1.06,0.19,2.16-0.03,3.17c-1.01,4.6-2.87,8.84-6.11,12.32c-0.94,1.01-2.21,1.88-3.49,2.38
		c-2.04,0.79-3.5-0.4-3.13-2.56c0.29-1.71,0.84-3.47,1.7-4.97c2.55-4.47,6.48-7.62,10.56-10.58
		C243.6,78.41,243.77,78.49,243.94,78.57z"/>
	<path class="st0" d="M109.54,54.25c0.41-3.33,0.62-6.69,1.28-9.97c1.36-6.67,2.9-13.31,4.5-19.93c0.31-1.29,1.21-2.44,1.84-3.65
		c0.3,0.12,0.6,0.23,0.9,0.35c-0.23,11.66-3.43,22.63-7.96,33.29C109.92,54.32,109.73,54.28,109.54,54.25z"/>
	<path class="st0" d="M149.82,74.3c-0.88-1.39,0.95-3.66-1.46-3.77c-0.72-0.03-1.51,1.43-2.47,2.42c-0.93-0.37-2.22-1.01-2.16-2.75
		c0.05-1.48,2-3.15,3.58-3.23c1.37-0.07,2.67,0.94,2.99,2.58C150.61,71.06,150.83,72.62,149.82,74.3z"/>
</g>
</svg>
