<svg id="Ebene_1" data-name="Ebene 1" xmlns="http://www.w3.org/2000/svg" viewBox="0 0 32 32"><defs><style>.cls-1{fill-rule:evenodd;}</style></defs><title>icon-footer-behance</title><path class="cls-1" d="M15.08,15.07a3.4,3.4,0,0,0,.69-2.23,4,4,0,0,0-.68-2.33,4.48,4.48,0,0,0-3.82-1.62H4.13V24.1h6.65a10.52,10.52,0,0,0,2.09-.2,4.08,4.08,0,0,0,1.67-.77,4.27,4.27,0,0,0,1-1.19,4.57,4.57,0,0,0,.66-2.43,4.09,4.09,0,0,0-.58-2.23A3.29,3.29,0,0,0,14,15.94,3.35,3.35,0,0,0,15.08,15.07ZM25.57,9.53H19.62v1.52h5.95Zm2.21,7.29a5.41,5.41,0,0,0-.85-2.25A4.34,4.34,0,0,0,25.11,13a5.9,5.9,0,0,0-2.49-.51A5,5,0,0,0,18.83,14a6,6,0,0,0-1.45,4.34A5.38,5.38,0,0,0,19,22.66,5.69,5.69,0,0,0,22.72,24a5.07,5.07,0,0,0,4-1.59,3.52,3.52,0,0,0,1-2H24.9a2.55,2.55,0,0,1-.57.75,2.27,2.27,0,0,1-1.54.5,2.68,2.68,0,0,1-1.52-.41A2.64,2.64,0,0,1,20.16,19h7.71A15.51,15.51,0,0,0,27.78,16.82ZM21,15.42a2.14,2.14,0,0,1,1.65-.63,2.39,2.39,0,0,1,1.64.59A2.46,2.46,0,0,1,25,17.1H20.23A3,3,0,0,1,21,15.42Zm-8.81,5.77a3.41,3.41,0,0,1-1.5.27H7.54V17.41h3.17a3.48,3.48,0,0,1,1.48.26,1.64,1.64,0,0,1,.94,1.62A1.94,1.94,0,0,1,12.16,21.19Zm.07-6.68a2.92,2.92,0,0,1-1.57.38H7.54V11.53h2.75a5.61,5.61,0,0,1,1.74.24,1.37,1.37,0,0,1,.79,1.41A1.47,1.47,0,0,1,12.23,14.51Z"/></svg>