<?xml version="1.0" encoding="utf-8"?>
<!-- Generator: Adobe Illustrator 23.0.3, SVG Export Plug-In . SVG Version: 6.00 Build 0)  -->
<svg version="1.1" id="Ebene_1" xmlns="http://www.w3.org/2000/svg" xmlns:xlink="http://www.w3.org/1999/xlink" x="0px" y="0px"
	 viewBox="0 0 512 512" style="enable-background:new 0 0 512 512;" xml:space="preserve">
<style type="text/css">
	.st0{fill:none;}
</style>
<g id="Layer_1">
</g>
<g>
	<path class="st0" d="M45,467h422V45H45V467z M296,211.2c0,0,30.7-11.4,74.2-13.8c1.3-0.1,2.9,0,4.1,0.4c1.6,0.4,1.9,0.7,1.9,3.5
		v28.3c0,1.8-0.6,2.5-2.5,2.5c-18.1-0.7-26.6-1.3-39.6,4v134.7c0,2.1-0.6,2.8-2.5,2.8h-33.3c-1.9,0-2.5-0.7-2.5-2.8V252.1
		c0-15.5-0.6-27.2-1.6-38.8C293.8,211.9,294.4,211.2,296,211.2z M135.8,141.2c0-1.8,0.6-2.8,2.4-2.8h32.1c1.5,0,2.1,0.7,2.1,2.5V339
		h88.8c1.8,0,2.1,1.1,1.8,2.8l-4.5,28.9c-0.6,2.1-1.5,2.5-3,2.5H138.8c-2.4,0-3-1.1-3-3.5V141.2z"/>
	<path d="M138.8,373.2h116.6c1.5,0,2.4-0.4,3-2.5l4.5-28.9c0.3-1.8,0-2.8-1.8-2.8h-88.8V140.8c0-1.8-0.6-2.5-2.1-2.5h-32.1
		c-1.8,0-2.4,1.1-2.4,2.8v228.5C135.8,372.1,136.4,373.2,138.8,373.2z"/>
	<path d="M295.7,252.1v118.7c0,2.1,0.6,2.8,2.5,2.8h33.3c1.9,0,2.5-0.7,2.5-2.8V236.1c12.9-5.3,21.5-4.7,39.6-4
		c1.9,0,2.5-0.7,2.5-2.5v-28.3c0-2.8-0.3-3.2-1.9-3.5c-1.3-0.4-2.9-0.4-4.1-0.4c-43.5,2.3-74.2,13.8-74.2,13.8
		c-1.6,0-2.2,0.7-1.9,2.1C295,224.9,295.7,236.6,295.7,252.1z"/>
	<path d="M467,0H45H0v45v422v45h45h422h45v-45V45V0H467z M467,467H45V45h422V467z"/>
</g>
</svg>
