<svg version="1.1" id="Layer_1" xmlns="http://www.w3.org/2000/svg" xmlns:xlink="http://www.w3.org/1999/xlink" x="0px" y="0px" viewBox="0 0 349.13 83.63" style="enable-background:new 0 0 248.67 47.86;" xml:space="preserve">
			<style type="text/css">
				.st0{fill:black;stroke:black;stroke-width:0.5;stroke-miterlimit:10;}																																				
			</style>
			<g>
			<path class="st0" d="M49.88,15.99c0.7-3.3-0.87-5.56-4.87-6.26c-4.43-0.78-13.47,0.78-21.99,4.78c-7.3,3.48-14.95,8.78-16.34,14.78
				c-1.3,6,1.65,10.69,10.26,18.69c2.52,2.35,4.69,4.43,6.52,6.35c9.48-3.82,23.63-7.27,25.63-7.99c2.17-0.78,1.95,0.76-0.39,1.2
				c-2,0.43-14.37,3.75-24.11,7.93c6.69,7.04,8.95,11.56,8.08,17.13c-1.04,6.95-9.65,10.87-18.6,10C5.46,81.8,1.46,76.76,2.25,72.15
				c1.13-6.09,8.95-11.65,17.47-16.08c0.52-0.35,1.3-0.61,2-0.96c-1.65-1.74-3.74-3.74-6-6C6.16,40.07,2.86,35.38,4.25,28.95
				c1.39-6.43,6.69-11.3,17.73-16.17C33.11,7.82,40.67,7.3,45.36,8.08c5.13,0.87,7.04,4.26,6.17,8.35c-0.87,3.65-4.61,5.48-5.65,5.56
				c-1.04,0.17-1.57-0.96-0.52-1.39C46.84,20.08,49.28,18.78,49.88,15.99z M22.85,56.24c-0.78,0.35-1.39,0.7-2,1.04
				C10.16,63.11,4.94,67.46,4.07,72.15c-0.7,4,2.96,7.91,10.08,8.43c8.69,0.52,15.65-3.56,16.52-8.43
				C31.37,67.8,29.8,63.81,22.85,56.24z"/>
			<path class="st0" d="M49.46,43.33c1.64-3.59,4.91-4.99,6.55-4.68c1.25,0.23,1.87,1.79,0.86,3.82c-1.09,2.42-3.74,3.67-6.63,4.6
				c0.16,2.34,1.79,4.13,5.15,3.9c8.89-1.01,17.78-21.37,25.35-40.33c0.31-0.7,0.31-1.01,0,0C72,34.91,65.22,50.97,55.78,52.53
				C52.03,53.16,46.57,49.88,49.46,43.33z M50.24,46.14c2.26-0.7,4.37-2.34,5.46-4.21c0.55-0.94,0.55-1.95,0.08-2.11
				c-0.86-0.23-3.51,0.78-4.91,4.06C50.55,44.66,50.32,45.44,50.24,46.14z"/>
			<path class="st0" d="M71.78,60.02c0.94-13.81,3.2-25.74,5.69-36.58C81.3,6.59,83.25,2.38,84.5,2.38c0.7,0,0.86,1.87,0.62,2.57
				c-0.23,0.94-1.25,2.57-2.11,4.45c-0.16,0.39-2.26,8.11-3.74,15.05c-1.25,5.85-4.68,21.84-6.01,36.19c-0.62,7.18,0.62,8.03-0.16,8.11
				C72.1,68.84,71.32,65.87,71.78,60.02z"/>
			<path class="st0" d="M83.78,47.62c-0.08,1.56,0.31,2.18,0.86,2.18c1.01,0,2.65-1.64,5.23-4.13c2.57-2.42,3.74-3.35,4.76-3.35
				c0.94,0,1.72,0.7,1.72,1.48c0,0.7-0.31,2.89-0.31,3.43c-0.08,0.94,0.08,1.09,0.39,1.09c1.01,0,2.34-1.25,3.43-2.65
				c0.78-1.01,1.4-2.03,1.64-2.73c0.47-1.01,0.62-1.4,1.01-1.4c0.7-0.16,0.78,0.78,3.98,0.62c3.43-0.23,9.2-1.87,11-2.5
				c1.01-0.31,1.25,0.31,0.39,0.78c-1.64,0.94-6.32,2.5-10.14,2.81c-3.67,0.23-4.45-0.39-4.6-0.23c-0.16,0.08-0.78,1.64-1.95,3.43
				c-1.01,1.56-2.96,3.2-4.76,3.2c-1.4,0-1.79-0.86-1.79-1.95c0-1.25,0.39-2.73,0.39-3.67c0-0.31,0-0.62-0.31-0.62
				c-0.62,0-0.94,0.78-3.98,3.59c-3.43,3.28-4.68,4.21-5.85,4.37C83,51.68,82.3,49.8,82.3,48.56c0-2.18,1.56-7.1,3.35-11
				c1.4-2.96,2.03-3.9,2.65-3.9s0.94,0.08,0.55,0.7C86.28,38.8,83.86,45.28,83.78,47.62z"/>
			<path class="st0" d="M123.64,45.98c-2.73,2.96-5.46,5.69-7.25,5.69c-1.09,0-2.03-1.01-1.56-2.81c0.55-1.95,1.25-4.45,1.79-6.08
				c0.62-2.03,0.23-2.89,1.01-3.04c0.78-0.08,1.09,0.55,1.09,0.78c0,0.62-0.23,1.25-0.94,3.04c-0.55,1.56-1.33,3.9-1.48,4.52
				c-0.31,1.33-0.23,1.79,0.31,1.79c0.94,0,3.67-1.95,6.08-4.68c3.9-4.21,5.23-6.08,7.1-6.08c1.95,0,2.34,3.35,2.42,5.77
				c6.08-3.59,11.86-5.62,13.34-5.62c1.17,0,1.48,1.33,0.39,1.33c-1.56,0-7.49,2.03-13.73,6.01c-0.16,7.1-2.81,18.1-6.4,24.49
				c-3.59,6.32-8.35,10.61-12.48,10.61c-2.11,0-4.91-1.4-4.91-5.38c0-5.77,4.6-14.51,13.65-23.71c2.57-2.65,5.62-4.91,8.66-6.79
				c-0.08-2.73-0.23-4.68-1.25-4.68C128.16,41.15,126.29,43.1,123.64,45.98z M130.74,47.54c-2.65,1.72-5.23,3.74-7.57,6.16
				c-9.44,9.52-13.18,18.41-13.18,22.85c0,2.26,0.94,3.67,2.73,3.67c2.89,0,7.72-3.2,11.7-10.22
				C128.08,63.61,130.58,52.85,130.74,47.54z"/>
			<path class="st0" d="M145.9,39.43c0.47,0,0.7,0.16,0.62,0.86c-0.16,1.48-1.17,4.21-1.33,4.84c-0.08,0.16,0,0.31,0.23,0.31
				c0.23,0,2.5-1.09,4.06-1.87c2.26-1.17,3.82-2.03,4.99-2.03c1.17,0,2.11,0.94,2.11,2.5c-0.16,2.18-0.08,3.51,0.62,3.59
				c1.4,0.31,6.47-1.25,10.37-2.89l12.01-4.99c0.7-0.31,1.09,0.78,0.23,1.17c-3.2,1.64-7.64,3.43-11.78,5.23
				c-4.06,1.72-9.36,3.43-11.7,2.96c-1.64-0.31-2.03-1.95-1.87-4.13c0.08-1.17,0-1.64-0.23-1.79c-0.39-0.23-1.25,0.08-2.73,0.86
				c-1.25,0.62-5.54,2.81-6.24,2.81c-0.47,0-1.87-0.55-1.87-1.17c0-0.39,1.01-3.04,1.4-5.54C144.96,39.51,145.51,39.51,145.9,39.43z"/>
			<path class="st0" d="M188.48,67.13c0.2-1.33,2.22-10.83,3.56-16.83c-1.41,0.49-2.69,0.84-3.43,0.84c-3.49,0-3.49-2.86-1.88-4.68
				c1.61-1.75,4.84-3.35,3.36-3.91c-1.41-0.49-0.6-2.3,1.07-4.05c1.07-1.05,2.69-1.89,4.23-2.3c1.95-7.89,4.3-17.11,4.43-18.23
				c0.2-1.75,2.08-2.1,1.34,0.56c-0.34,1.12-2.22,8.52-4.36,17.32c0.4-0.07,0.81-0.07,1.21-0.07c2.82,0,3.49,1.54,2.82,2.16
				c-0.6,0.63-2.82,1.68-2.01,0.84c0.81-0.84,0.87-1.82-0.81-1.82c-0.4,0-0.94,0.14-1.54,0.35l-2.62,10.76
				c0.81-0.35,1.54-0.77,2.15-1.12c1.81-0.98,2.55-0.14,1.81,0.63c-0.4,0.49-2.35,1.4-4.37,2.16c-1.88,7.68-3.43,14.53-4.03,17.25
				C189.08,68.67,188.28,68.88,188.48,67.13z M192.38,48.7l0.47-1.89l0.74-3.35c-1.54,0.42-4.03,2.37-5.44,3.98
				c-1.54,1.75-0.54,2.1,1.07,2.1C189.96,49.54,191.17,49.19,192.38,48.7z M193.85,42.27l1.01-4.19c-0.87,0.56-1.81,1.19-2.75,1.96
				c-2.35,2.03-0.67,2.16,1.21,2.16C193.52,42.2,193.72,42.2,193.85,42.27z"/>
			<path class="st0" d="M249.04,58.18c0.9-0.82,1.96-0.16,1.14,0.73c-7.92,8.82-22.45,15.35-32.41,15.35
				c-8.49,0-13.88-5.06-13.88-11.76c0-4.57,1.22-14.53,13.96-30.78c12.33-15.75,24.25-23.35,32.49-23.35c3.1,0,4.9,1.71,4.9,4.57
				s-3.18,4.33-2.29,2.61c0.9-1.71,1.23-5.22-2.45-5.22c-4,0-17.06,5.71-31.35,23.35c-9.8,12-13.63,21.39-13.63,28.82
				c0,6.04,6.2,9.63,11.27,9.63C227.65,72.14,243.08,63.89,249.04,58.18z"/>
			<path class="st0" d="M242.59,51.44c-0.16,1.79,0.16,3.12,1.25,3.12c3.51,0,8.42-6.94,8.42-13.73c0-1.25-0.16-2.26-0.39-3.12
				c-1.09,0.39-2.26,0.55-3.35,0.55c-2.11,0-3.74-0.94-3.51-2.73c0.23-1.25,1.56-2.26,3.35-2.26c1.87,0,3.59,0.86,4.6,2.57
				c6.4-3.35,12.95-13.73,19.5-27.77c0.78-1.64,0.37-1.6,0,0c-6.43,15.74-12.56,25.51-18.96,28.86c0.39,1.01,0.62,2.26,0.62,3.67
				c0,9.36-6.08,15.29-10.37,15.29c-1.95,0-2.96-2.11-2.65-4.6c0.39-3.74,2.03-6.86,4.84-10.37c0.7-0.86,1.64-1.64,2.5-1.48
				c1.33,0.23,1.01,0.55,0.08,1.56C245.48,44.03,242.9,48.63,242.59,51.44z M251.41,36.54c-0.78-1.4-1.95-2.03-3.12-2.11
				c-0.86,0-1.72,0.31-1.87,1.17c-0.16,0.78,0.78,1.4,2.26,1.4C249.53,37.01,250.47,36.86,251.41,36.54z"/>
			<path class="st0" d="M262.62,60.02c0.94-13.81,3.2-25.74,5.69-36.58c3.82-16.85,5.77-21.06,7.02-21.06c0.7,0,0.86,1.87,0.62,2.57
				c-0.23,0.94-1.25,2.57-2.11,4.45c-0.16,0.39-2.26,8.11-3.74,15.05c-1.25,5.85-4.68,21.84-6.01,36.19c-0.62,7.18,0.62,8.03-0.16,8.11
				C262.93,68.84,262.15,65.87,262.62,60.02z"/>
			<path class="st0" d="M273.35,45.75c0.7,0,1.95-0.23,3.9-0.86c7.57-2.34,14.67-6.86,21.53-11.23c1.48-0.94,2.57-1.48,3.43-1.48
				c1.95,0,2.57,1.33,2.57,2.34c0,0.94-2.26,9.05-2.34,9.91c0,0.16,0,0.31,0.23,0.31c0.31,0,1.95-0.94,3.51-1.72
				c2.26-1.17,3.9-1.95,5.07-1.95c1.25,0,2.18,0.94,2.11,2.5c-0.16,2.11-0.16,3.51,0.55,3.59c1.48,0.31,4.91-1.09,8.81-2.5l13.65-4.91
				c0.78-0.31,1.09,0.78,0.23,1.17c-3.35,1.4-9.28,3.51-13.49,5.15c-4.06,1.48-7.72,3.04-10.06,2.57c-1.64-0.31-1.87-1.95-1.79-4.13
				c0.08-1.17,0-1.64-0.23-1.79c-0.39-0.23-1.33,0-2.73,0.78c-1.33,0.62-5.54,2.73-6.24,2.73c-0.47,0-1.56-0.55-1.56-1.17
				s1.79-10.14,1.87-10.76c0.08-0.47-0.08-0.62-0.62-0.7c-0.39,0-1.09,0.39-2.18,1.09c-7.33,4.91-13.34,8.42-21.92,11.39
				c-2.11,0.7-3.59,1.01-4.68,1.01c-1.17,0-2.18-0.78-2.18-2.03c0-0.86,0.16-2.26,0.62-3.51c0.31-1.01,0.7-1.64,2.03-1.87
				c0.39,0,0.86,0.16,0.39,1.09c-0.62,1.4-1.17,2.96-1.25,4.13C272.57,45.51,272.8,45.75,273.35,45.75z M274.44,32.49
				c0.23-0.39,1.01-1.17,1.33-0.94c0.39,0.23,0.86,1.01,0.47,1.64c-0.47,0.7-1.25,1.25-1.56,1.09
				C274.29,34.05,274.13,33.03,274.44,32.49z"/>
			<path class="st0" d="M336.92,50.19c-4.06,0.31-5.85-3.12-4.21-6.71c1.56-3.59,4.68-4.99,6.32-4.68c1.48,0.23,1.95,1.48,1.33,3.28
				c-0.94,2.42-3.82,4.13-6.63,5.07c0.39,1.09,1.48,1.64,2.81,1.64c2.42,0,4.6-1.4,6.79-3.04c0.7-0.55,1.25-0.16,0.39,0.78
				C341.83,48.56,338.64,50.12,336.92,50.19z M333.57,46.22c2.26-0.78,4.99-2.96,5.62-4.68c0.23-0.7,0.16-1.4-0.39-1.56
				c-0.86-0.23-3.35,0.78-4.68,4.06C333.72,44.89,333.57,45.59,333.57,46.22z"/>
			</g>
</svg>