<?xml version="1.0" encoding="utf-8"?>
<!-- Generator: Adobe Illustrator 16.0.0, SVG Export Plug-In . SVG Version: 6.00 Build 0)  -->
<!DOCTYPE svg PUBLIC "-//W3C//DTD SVG 1.1//EN" "http://www.w3.org/Graphics/SVG/1.1/DTD/svg11.dtd">
<svg version="1.1" id="Layer_1" xmlns="http://www.w3.org/2000/svg" xmlns:xlink="http://www.w3.org/1999/xlink" x="0px" y="0px"
	 width="297px" height="274px" viewBox="-46.5 279.5 297 274" enable-background="new -46.5 279.5 297 274" xml:space="preserve">

	<style>
	#let {fill: #000000; stroke: #000000;}
	@media (prefers-color-scheme: dark) {#let {fill: #FFF;stroke: #FFF;}}
	</style>

	<path id="let" stroke-width="6" stroke-miterlimit="10" d="M119.036,299.122c4.841,3.204,6.895,7.331,6.21,12.38
		c-0.685,4.996-3.325,10.426-7.824,16.236c-4.499,5.81-9.046,10.861-13.643,15.15c-4.596,4.291-8.361,7.385-11.393,9.34
		c-0.44,0.217-0.831,0.108-1.222-0.436c-0.391-0.542-0.342-0.979,0.098-1.355c7.09-7.277,12.762-13.902,16.918-19.875
		c0.196-0.381,0.782-1.143,1.711-2.444c0.929-1.249,1.614-2.226,2.201-2.933c0.538-0.705,1.125-1.629,1.711-2.771
		c0.586-1.142,1.026-2.172,1.369-3.147c1.076-3.367,1.223-6.082,0.392-8.254c-0.783-2.174-1.956-3.693-3.472-4.672
		c-1.516-0.977-3.57-1.683-6.112-2.172c-6.357-1.086-13.887,0-22.688,3.204c-8.752,3.204-17.114,7.224-25.084,12.001
		c-9.486,5.593-16.821,11.458-22.102,17.54c-5.183,5.865-7.383,12.437-6.65,19.821c0.733,7.33,4.156,13.412,10.17,18.189
		c2.689,2.172,8.019,5.973,16.039,11.459c8.019,5.483,14.083,10.045,18.141,13.629c8.606,7.657,13.594,16.616,14.914,26.988
		c1.32,10.317-1.369,20.474-8.166,30.355c-2.151,3.203-4.743,6.354-7.824,9.34c-3.081,2.985-5.965,5.593-8.704,7.818
		c-2.739,2.227-6.21,4.562-10.415,7.061c-4.205,2.497-7.677,4.507-10.415,6.027c-2.738,1.466-6.552,3.364-11.394,5.538
		c-4.743,2.173-46.893,19.011-49.094,19.934c-2.2,0.924-5.77,2.335-10.708,4.398c-1.076,0.487-2.005,0.218-2.836-0.706
		c-0.832-0.979-1.125-2.117-0.929-3.422c0.196-1.304,0.929-2.172,2.103-2.499c5.917-2.278,10.464-4.018,13.643-5.268
		c3.178-1.248,46.258-18.575,52.028-21.182c5.77-2.607,10.513-5.104,14.18-7.331c3.667-2.229,7.677-5.104,11.931-8.525
		c4.254-3.42,7.873-6.95,10.904-10.644c3.765-4.671,6.552-9.721,8.312-15.261c1.76-5.482,2.201-11.132,1.271-16.94
		c-0.929-5.812-3.374-11.022-7.334-15.692c-1.81-2.173-4.059-4.345-6.699-6.518c-2.64-2.229-4.938-4.02-6.943-5.376
		c-2.005-1.356-4.694-3.203-8.068-5.484s-5.77-3.964-7.188-4.996c-0.733-0.487-2.396-1.573-4.939-3.312
		c-2.542-1.737-4.4-3.041-5.574-3.965c-1.173-0.924-2.836-2.228-4.938-3.965c-2.103-1.736-3.716-3.367-4.841-4.832
		c-1.125-1.467-2.25-3.258-3.325-5.377c-1.076-2.117-1.76-4.234-2.103-6.354c-1.809-10.047,3.081-20.525,14.669-31.551
		c11.393-10.752,24.546-18.789,39.362-24.164C96.347,296.352,111.065,294.668,119.036,299.122z"/>
	<path id="let" stroke-width="6" stroke-miterlimit="10" d="M234.848,363.346c1.957,0.342,3.082,1.418,3.473,3.228
		c0.393,1.81-0.049,3.472-1.271,4.938c-1.222,1.468-2.836,1.858-4.741,1.224c-7.629-2.15-15.744-3.568-24.353-4.205
		c-10.415,23.863-18.63,43.178-24.547,57.942c-7.872,19.901-14.72,38.923-20.636,57.112c-1.711,5.379-4.303,14.718-7.727,28.019
		c-3.423,13.302-6.454,23.372-9.046,30.269c-0.438,1.271-1.319,2.152-2.642,2.592c-1.368,0.44-2.59,0.294-3.715-0.391
		c-1.125-0.687-1.564-1.812-1.369-3.325c0.44-4.303,1.026-8.655,1.858-13.056c0.831-4.401,1.809-8.948,2.982-13.645
		c1.173-4.695,2.347-8.997,3.472-13.007c1.125-3.961,2.593-8.508,4.449-13.544c1.81-5.037,3.374-9.34,4.694-12.812
		c1.271-3.521,3.08-7.971,5.33-13.396c2.248-5.428,4.01-9.584,5.23-12.521c1.223-2.885,3.08-7.188,5.479-12.906
		c2.396-5.724,4.154-9.731,5.229-12.127c6.553-15.503,14.769-33.984,24.692-55.5c-14.521-0.439-33.887,1.711-58.09,6.455
		c-11.833,27.87-24.692,60.778-38.58,98.771c-0.733,2.151-2.151,3.325-4.107,3.569c-2.005,0.194-3.569-0.439-4.743-2.007
		c-1.174-1.562-1.271-3.423-0.343-5.572c5.184-11.197,12.273-27.333,21.368-48.408c9.096-21.075,15.55-36.037,19.462-44.839
		c-13.007,2.592-144.865,45.893-150.049,46.771c-0.636,0.1-1.174-0.098-1.613-0.587c-0.44-0.486-0.587-0.979-0.489-1.516
		c0.098-0.538,0.489-0.93,1.125-1.125c3.423-0.732,25.099-7.676,74.432-24.292c0,0,84.224-25.688,78.99-24.534
		c10.855-23.765,21.22-44.301,31.147-61.66c0.438-0.538,0.93-0.832,1.468-0.832c0.537,0,0.979,0.294,1.369,0.832
		s0.393,1.125,0.1,1.761c-9.146,18.092-18.191,37.553-27.092,58.433c23.229-5.281,42.885-8.021,58.873-8.216
		c0.344-0.879,0.88-2.15,1.613-3.861c3.228-6.896,5.771-12.225,7.578-16.038c1.811-3.813,4.4-8.508,7.727-14.032
		c3.326-5.525,6.798-10.367,10.316-14.427c0.637-0.88,1.468-0.929,2.445-0.146c0.979,0.732,1.125,1.563,0.488,2.444
		c-3.229,4.205-6.455,9.341-9.684,15.403c-3.228,6.062-5.524,10.66-6.844,13.689c-1.369,3.082-3.814,8.754-7.336,17.019
		C219.396,361.193,227.316,361.927,234.848,363.346z"/>

</svg>
