<?xml version="1.0" encoding="utf-8"?>
<!-- Generator: Adobe Illustrator 24.1.0, SVG Export Plug-In . SVG Version: 6.00 Build 0)  -->
<svg version="1.1" id="Layer_1" xmlns="http://www.w3.org/2000/svg" xmlns:xlink="http://www.w3.org/1999/xlink" x="0px" y="0px"
	 viewBox="0 0 125.16 67.19" style="enable-background:new 0 0 125.16 67.19;" xml:space="preserve">
	 
	 
	<style type="text/css">
		.lines{fill: rgba(255, 255, 255, 0.95);stroke: rgba(255, 255, 255, 0.95)stroke-width:0.1;stroke-miterlimit:10;}																																				
	</style>
<g>
	<path class="lines" d="M25.98,14.96c0.99,0.59,1.41,1.35,1.27,2.28c-0.14,0.92-0.68,1.92-1.6,2.99c-0.92,1.07-1.85,2-2.79,2.79
		c-0.94,0.79-1.71,1.36-2.33,1.72c-0.09,0.04-0.17,0.02-0.25-0.08s-0.07-0.18,0.02-0.25c1.45-1.34,2.61-2.56,3.46-3.66
		c0.04-0.07,0.16-0.21,0.35-0.45c0.19-0.23,0.33-0.41,0.45-0.54c0.11-0.13,0.23-0.3,0.35-0.51c0.12-0.21,0.21-0.4,0.28-0.58
		c0.22-0.62,0.25-1.12,0.08-1.52c-0.16-0.4-0.4-0.68-0.71-0.86c-0.31-0.18-0.73-0.31-1.25-0.4c-1.3-0.2-2.84,0-4.64,0.59
		c-1.79,0.59-3.5,1.33-5.13,2.21c-1.94,1.03-3.44,2.11-4.52,3.23C7.96,23,7.51,24.21,7.66,25.57c0.15,1.35,0.85,2.47,2.08,3.35
		c0.55,0.4,1.64,1.1,3.28,2.11c1.64,1.01,2.88,1.85,3.71,2.51c1.76,1.41,2.78,3.06,3.05,4.97c0.27,1.9-0.28,3.77-1.67,5.59
		c-0.44,0.59-0.97,1.17-1.6,1.72s-1.22,1.03-1.78,1.44c-0.56,0.41-1.27,0.84-2.13,1.3s-1.57,0.83-2.13,1.11
		c-0.56,0.27-1.34,0.62-2.33,1.02C7.17,51.09,6.45,51.37,6,51.54c-0.45,0.17-1.18,0.43-2.19,0.81c-0.22,0.09-0.41,0.04-0.58-0.13
		C3.06,52.04,3,51.83,3.04,51.59c0.04-0.24,0.19-0.4,0.43-0.46c1.21-0.42,2.14-0.74,2.79-0.97S7.82,49.56,9,49.08
		c1.18-0.48,2.15-0.94,2.9-1.35s1.57-0.94,2.44-1.57s1.61-1.28,2.23-1.96c0.77-0.86,1.34-1.79,1.7-2.81
		c0.36-1.01,0.45-2.05,0.26-3.12c-0.19-1.07-0.69-2.03-1.5-2.89c-0.37-0.4-0.83-0.8-1.37-1.2c-0.54-0.41-1.01-0.74-1.42-0.99
		c-0.41-0.25-0.96-0.59-1.65-1.01c-0.69-0.42-1.18-0.73-1.47-0.92c-0.15-0.09-0.49-0.29-1.01-0.61c-0.52-0.32-0.9-0.56-1.14-0.73
		c-0.24-0.17-0.58-0.41-1.01-0.73c-0.43-0.32-0.76-0.62-0.99-0.89c-0.23-0.27-0.46-0.6-0.68-0.99s-0.36-0.78-0.43-1.17
		c-0.37-1.85,0.63-3.78,3-5.81c2.33-1.98,5.02-3.46,8.05-4.45C21.34,14.45,24.35,14.14,25.98,14.96z"/>
	<path class="lines" d="M28.91,37.83c0.13-0.02,0.25,0.03,0.35,0.17s0.13,0.26,0.08,0.4c-0.15,0.37-0.41,0.73-0.78,1.06
		c-0.36,0.33-0.67,0.57-0.92,0.73c-0.25,0.15-0.64,0.36-1.17,0.63c-1.39,0.73-2.5,0.96-3.33,0.69c-0.64-0.2-1.07-0.53-1.29-0.99
		c-0.22-0.46-0.25-0.97-0.08-1.52c0.16-0.55,0.37-1.06,0.63-1.53c0.25-0.47,0.56-0.92,0.91-1.34c1.08-1.39,2.03-2.13,2.87-2.24
		c0.42-0.07,0.79,0.01,1.12,0.23c0.33,0.22,0.51,0.54,0.53,0.96c0.04,0.99-0.38,1.83-1.27,2.52s-1.83,1-2.82,0.91
		c-0.35,0.75-0.33,1.2,0.07,1.35c0.09,0.04,0.37-0.02,0.86-0.2c0.4-0.13,0.96-0.37,1.68-0.73c0.15-0.07,0.41-0.2,0.78-0.41
		c0.36-0.21,0.68-0.37,0.96-0.48C28.35,37.92,28.63,37.85,28.91,37.83z M26.11,35.58c-0.55,0.11-1.16,0.74-1.81,1.88
		c0.51-0.09,0.93-0.3,1.29-0.63c0.26-0.24,0.48-0.51,0.66-0.79c0.02-0.04,0.04-0.11,0.07-0.2c0.09-0.11,0.13-0.19,0.12-0.25
		C26.41,35.54,26.31,35.54,26.11,35.58z"/>
	<path class="lines" d="M47.33,3.44c-1.01,2.16-2.18,4.45-3.51,6.88c-1.33,2.43-2.77,5.02-4.32,7.77c-1.55,2.75-2.8,5-3.75,6.76
		c-1.23,2.38-2.49,5.32-3.76,8.84c-1.34,3.72-1.61,5.46-0.79,5.21c0.02,0,0.04-0.01,0.07-0.03c0.48-0.2,1.22-0.84,2.19-1.93
		s1.59-1.72,1.83-1.9c0.13-0.11,0.27-0.12,0.43-0.02c0.15,0.1,0.18,0.23,0.07,0.38c-0.04,0.09-0.21,0.36-0.5,0.83
		c-0.29,0.46-0.54,0.87-0.76,1.22c-0.22,0.35-0.52,0.8-0.89,1.35s-0.72,1.02-1.04,1.4c-0.32,0.39-0.66,0.75-1.02,1.11
		c-0.36,0.35-0.71,0.6-1.04,0.76s-0.64,0.2-0.92,0.13c-1.5-0.4-1.8-2.03-0.92-4.92c0.59-1.96,1.3-3.95,2.11-5.97
		c0.81-2.02,1.7-4.02,2.67-5.99c0.97-1.97,1.96-3.88,2.97-5.73c1.01-1.85,2.13-3.76,3.35-5.74c1.22-1.98,2.36-3.78,3.43-5.41
		c1.07-1.63,2.25-3.41,3.55-5.35C46.88,2.94,47.02,2.9,47.2,3C47.37,3.09,47.42,3.24,47.33,3.44z"/>
	<path class="lines" d="M44.36,35.81c0.13,0.04,0.23,0.13,0.28,0.26c0.05,0.13,0.05,0.26-0.02,0.4c-0.31,0.51-0.74,0.79-1.29,0.84
		c-0.55,0.06-1.08-0.03-1.58-0.25c-0.13,0.15-0.36,0.47-0.68,0.94c-0.32,0.47-0.58,0.84-0.79,1.09c-0.21,0.25-0.5,0.47-0.87,0.66
		c-0.37,0.19-0.75,0.23-1.12,0.12c-0.51-0.15-0.79-0.52-0.86-1.09c-0.95,1.45-1.84,2.11-2.67,1.98c-0.29-0.07-0.51-0.17-0.68-0.3
		c-0.17-0.13-0.27-0.31-0.31-0.53c-0.04-0.22-0.07-0.44-0.07-0.66c0-0.22,0.06-0.49,0.18-0.81c0.12-0.32,0.23-0.59,0.31-0.83
		c0.09-0.23,0.23-0.51,0.41-0.82c0.19-0.32,0.33-0.56,0.43-0.73c0.1-0.17,0.23-0.37,0.38-0.63c0.15-0.25,0.24-0.39,0.26-0.41
		c0.11-0.22,0.3-0.27,0.56-0.17c0.26,0.11,0.35,0.29,0.26,0.53c-0.07,0.18-0.18,0.46-0.35,0.84c-0.16,0.39-0.3,0.73-0.41,1.04
		c-0.11,0.31-0.2,0.59-0.26,0.86c-0.11,0.51-0.12,0.77-0.03,0.79c0.04,0,0.3-0.36,0.76-1.09c0.09-0.15,0.29-0.5,0.59-1.02
		c0.31-0.53,0.57-0.95,0.79-1.27c0.22-0.32,0.47-0.62,0.76-0.91c0.24-0.24,0.51-0.3,0.81-0.17c0.3,0.13,0.46,0.36,0.48,0.69
		c0,0.55-0.11,1.14-0.33,1.78c-0.02,0.07-0.09,0.22-0.2,0.46c-0.22,0.53-0.31,0.8-0.26,0.83c0.04,0.02,0.19-0.12,0.43-0.43
		c0.09-0.11,0.19-0.24,0.3-0.4c0.15-0.2,0.33-0.47,0.53-0.81c0.2-0.34,0.39-0.63,0.58-0.87c0.19-0.24,0.41-0.46,0.68-0.66
		c0.2-0.13,0.42-0.17,0.66-0.1c0.24,0.07,0.42,0.2,0.53,0.4c0.02,0.04,0.17,0.09,0.43,0.15c0.26,0.06,0.54,0.11,0.84,0.17
		C44.11,35.75,44.29,35.79,44.36,35.81z"/>
	<path class="lines" d="M48.78,34.56c0.29-0.26,0.57-0.28,0.86-0.05c0.29,0.23,0.35,0.52,0.2,0.87c-1.58,3.37-3.95,8.43-7.1,15.18
		c-0.11,0.24-0.37,0.8-0.78,1.67c-0.41,0.87-0.68,1.45-0.83,1.75c-0.14,0.3-0.4,0.84-0.78,1.62c-0.37,0.78-0.65,1.36-0.84,1.73
		c-0.19,0.37-0.45,0.91-0.79,1.62c-0.34,0.7-0.64,1.29-0.89,1.75c-0.25,0.46-0.54,1-0.87,1.62c-0.33,0.62-0.65,1.2-0.97,1.75
		c-0.32,0.55-0.64,1.1-0.97,1.65c-0.13,0.22-0.32,0.28-0.58,0.18s-0.34-0.27-0.25-0.51c0.57-1.63,1.3-3.44,2.19-5.43
		c0.89-1.99,1.57-3.46,2.03-4.42s1.31-2.69,2.54-5.2c1.94-3.94,3.93-7.99,5.97-12.14c-1.32,1.14-2.57,1.66-3.76,1.55
		c-0.29-0.02-0.47-0.17-0.56-0.43c-0.07-0.18-0.12-0.38-0.15-0.61c-0.03-0.23-0.05-0.43-0.05-0.61c0-0.18,0.03-0.4,0.08-0.68
		c0.06-0.27,0.1-0.47,0.13-0.59c0.03-0.12,0.09-0.34,0.17-0.66c0.08-0.32,0.13-0.51,0.15-0.58c0.04-0.18,0.14-0.28,0.3-0.31
		c0.15-0.03,0.3,0.01,0.43,0.12c0.13,0.11,0.18,0.25,0.13,0.43c-0.2,1.3,0.1,1.87,0.89,1.72C45.52,37.38,46.89,36.39,48.78,34.56z"
		/>
	<path class="lines" d="M56.83,36.64c0.22-0.11,0.42-0.09,0.59,0.05c0.18,0.14,0.24,0.33,0.2,0.54c-0.07,0.42-0.23,0.84-0.48,1.25
		c-0.25,0.42-0.5,0.75-0.74,0.99c-0.24,0.24-0.57,0.55-0.99,0.92c-0.04,0.04-0.12,0.11-0.21,0.2c-0.1,0.09-0.18,0.17-0.25,0.23
		c-0.07,0.07-0.15,0.14-0.25,0.21c-0.1,0.08-0.19,0.14-0.26,0.2c-0.08,0.06-0.17,0.11-0.28,0.17c-0.11,0.06-0.21,0.09-0.3,0.12
		c-0.09,0.02-0.19,0.03-0.3,0.03c-0.11,0-0.21-0.02-0.3-0.07c-0.29-0.09-0.49-0.26-0.61-0.53c-0.12-0.26-0.18-0.54-0.16-0.82
		c0.01-0.29,0.02-0.56,0.02-0.83c0-0.22,0.02-0.47,0.07-0.74c0.04-0.27,0.08-0.51,0.12-0.71c0.03-0.2,0.09-0.45,0.17-0.74
		c0.08-0.3,0.13-0.52,0.15-0.68c-0.13,0.15-0.31,0.36-0.54,0.63c-0.23,0.26-0.38,0.43-0.45,0.49c-0.9,0.97-1.5,1.58-1.78,1.85
		c-0.22,0.24-0.5,0.28-0.84,0.1c-0.34-0.18-0.45-0.43-0.31-0.76c0.4-0.97,0.77-1.95,1.12-2.94c0.09-0.31,0.29-0.42,0.59-0.33
		c0.31,0.09,0.43,0.29,0.36,0.59c-0.02,0.04-0.04,0.1-0.05,0.17c-0.01,0.07-0.03,0.11-0.05,0.13c0.46-0.51,0.75-0.81,0.86-0.92
		c0.22-0.22,0.38-0.38,0.48-0.5c0.1-0.11,0.24-0.23,0.41-0.36c0.18-0.13,0.36-0.23,0.54-0.28c0.19-0.05,0.39-0.09,0.61-0.12
		c0.22-0.02,0.41,0.06,0.56,0.23c0.15,0.18,0.23,0.36,0.23,0.56c0.02,0.37-0.08,1.1-0.3,2.18c-0.22,0.99-0.34,1.71-0.36,2.15
		c0.18-0.15,0.39-0.38,0.64-0.69c0.25-0.31,0.39-0.47,0.41-0.5c0.04-0.04,0.12-0.13,0.23-0.25c0.11-0.12,0.19-0.2,0.23-0.25
		c0.04-0.04,0.11-0.12,0.2-0.21c0.09-0.1,0.17-0.18,0.23-0.23c0.07-0.05,0.14-0.12,0.23-0.18c0.09-0.07,0.18-0.13,0.26-0.2
		C56.62,36.74,56.72,36.68,56.83,36.64z"/>
	<path class="lines" d="M93.89,26.61c0.4,0.07,0.63,0.29,0.71,0.66c0.08,0.37-0.01,0.71-0.26,1.01c-0.25,0.3-0.58,0.38-0.97,0.25
		c-1.56-0.44-3.22-0.73-4.98-0.86c-2.13,4.88-3.81,8.83-5.02,11.85c-1.61,4.07-3.01,7.96-4.22,11.68c-0.35,1.1-0.88,3.01-1.58,5.73
		c-0.7,2.72-1.32,4.78-1.85,6.19c-0.09,0.26-0.27,0.44-0.54,0.53c-0.28,0.09-0.53,0.06-0.76-0.08c-0.23-0.14-0.32-0.37-0.28-0.68
		c0.09-0.88,0.21-1.77,0.38-2.67c0.17-0.9,0.37-1.83,0.61-2.79c0.24-0.96,0.48-1.84,0.71-2.66c0.23-0.81,0.53-1.74,0.91-2.77
		c0.37-1.03,0.69-1.91,0.96-2.62c0.26-0.72,0.63-1.63,1.09-2.74c0.46-1.11,0.82-1.96,1.07-2.56c0.25-0.59,0.63-1.47,1.12-2.64
		c0.49-1.17,0.85-1.99,1.07-2.48c1.34-3.17,3.02-6.95,5.05-11.35c-2.97-0.09-6.93,0.35-11.88,1.32c-2.42,5.7-5.05,12.43-7.89,20.2
		c-0.15,0.44-0.44,0.68-0.84,0.73c-0.41,0.04-0.73-0.09-0.97-0.41c-0.24-0.32-0.26-0.7-0.07-1.14c1.06-2.29,2.51-5.59,4.37-9.9
		c1.86-4.31,3.18-7.37,3.98-9.17c-2.66,0.53-4.52,0.88-5.58,1.06c-0.13,0.02-0.24-0.02-0.33-0.12c-0.09-0.1-0.12-0.2-0.1-0.31
		c0.02-0.11,0.1-0.19,0.23-0.23c0.7-0.15,1.75-0.4,3.15-0.74c1.4-0.34,2.44-0.59,3.12-0.74c2.22-4.86,4.34-9.06,6.37-12.61
		c0.09-0.11,0.19-0.17,0.3-0.17c0.11,0,0.2,0.06,0.28,0.17c0.08,0.11,0.08,0.23,0.02,0.36c-1.87,3.7-3.72,7.68-5.54,11.95
		c4.75-1.08,8.77-1.64,12.04-1.68c0.07-0.18,0.18-0.44,0.33-0.79c0.66-1.41,1.18-2.5,1.55-3.28s0.9-1.74,1.58-2.87
		c0.68-1.13,1.39-2.12,2.11-2.95c0.13-0.18,0.3-0.19,0.5-0.03c0.2,0.15,0.23,0.32,0.1,0.5c-0.66,0.86-1.32,1.91-1.98,3.15
		c-0.66,1.24-1.13,2.18-1.4,2.8c-0.28,0.63-0.78,1.79-1.5,3.48C90.73,26.17,92.35,26.32,93.89,26.61z"/>
	<path class="lines" d="M93.13,37.17c0.18-0.02,0.32,0.06,0.43,0.25c0.11,0.19,0.11,0.36,0,0.51c-0.64,0.84-1.55,1.3-2.74,1.39
		c-0.26,0.55-0.58,1-0.96,1.35c-0.29,0.24-0.58,0.45-0.89,0.61c-0.31,0.16-0.65,0.26-1.02,0.3c-0.37,0.03-0.69-0.09-0.96-0.38
		c-0.13-0.13-0.23-0.27-0.3-0.43c-0.07-0.15-0.1-0.29-0.12-0.41c-0.01-0.12,0.02-0.28,0.1-0.48c0.08-0.2,0.14-0.33,0.18-0.41
		c0.04-0.08,0.13-0.23,0.26-0.45c0.13-0.22,0.21-0.35,0.23-0.4c0.13-0.22,0.32-0.27,0.58-0.17c0.25,0.11,0.34,0.29,0.25,0.53
		c0,0.04-0.03,0.13-0.1,0.26c-0.07,0.13-0.11,0.23-0.13,0.3c-0.02,0.07-0.03,0.15-0.03,0.25c0,0.1,0.05,0.15,0.15,0.15
		c0.1,0,0.24,0,0.41,0c0.22-0.04,0.49-0.3,0.82-0.76c-0.44-0.15-0.84-0.37-1.19-0.64c-0.35-0.27-0.63-0.62-0.82-1.04
		c-0.24-0.53-0.31-1.04-0.2-1.55c0.11-0.51,0.4-0.92,0.86-1.25c1.12-0.81,2.01-0.9,2.67-0.26c0.79,0.77,1.04,1.87,0.76,3.3
		C92.28,37.38,92.87,37.19,93.13,37.17z M89.9,37.96c0.24-0.81,0.24-1.46,0-1.95c-0.2-0.42-0.5-0.54-0.89-0.38s-0.58,0.51-0.56,1.04
		c0.02,0.26,0.17,0.52,0.43,0.76c0.26,0.24,0.54,0.41,0.82,0.5c0.02,0,0.05,0.01,0.1,0.02C89.84,37.95,89.88,37.96,89.9,37.96z"/>
	<path class="lines" d="M99.01,37.83c0.13-0.02,0.25,0.03,0.35,0.17s0.13,0.26,0.08,0.4c-0.15,0.37-0.41,0.73-0.78,1.06
		c-0.36,0.33-0.67,0.57-0.92,0.73c-0.25,0.15-0.64,0.36-1.17,0.63c-1.39,0.73-2.5,0.96-3.33,0.69c-0.64-0.2-1.07-0.53-1.29-0.99
		c-0.22-0.46-0.25-0.97-0.08-1.52c0.16-0.55,0.37-1.06,0.63-1.53c0.25-0.47,0.56-0.92,0.91-1.34c1.08-1.39,2.03-2.13,2.87-2.24
		c0.42-0.07,0.79,0.01,1.12,0.23c0.33,0.22,0.51,0.54,0.53,0.96c0.04,0.99-0.38,1.83-1.27,2.52s-1.83,1-2.82,0.91
		c-0.35,0.75-0.33,1.2,0.07,1.35c0.09,0.04,0.37-0.02,0.86-0.2c0.4-0.13,0.96-0.37,1.68-0.73c0.15-0.07,0.41-0.2,0.78-0.41
		c0.36-0.21,0.68-0.37,0.96-0.48C98.44,37.92,98.72,37.85,99.01,37.83z M96.2,35.58c-0.55,0.11-1.16,0.74-1.81,1.88
		c0.51-0.09,0.93-0.3,1.29-0.63c0.26-0.24,0.48-0.51,0.66-0.79c0.02-0.04,0.04-0.11,0.07-0.2c0.09-0.11,0.13-0.19,0.12-0.25
		C96.5,35.54,96.4,35.54,96.2,35.58z"/>
	<path class="lines" d="M115.37,5.62c-0.95,2.05-2.14,4.65-3.58,7.8c-1.44,3.16-2.78,6.07-4.01,8.73c-1.23,2.66-2.4,5.17-3.5,7.52
		c-0.9,1.94-1.8,4.1-2.71,6.5c0.97-0.92,1.49-1.42,1.55-1.48c0.11-0.11,0.25-0.25,0.41-0.41c0.17-0.17,0.31-0.31,0.45-0.45
		c0.13-0.13,0.28-0.27,0.45-0.41s0.33-0.27,0.5-0.4s0.32-0.23,0.48-0.31c0.55-0.29,1.06-0.31,1.52-0.07
		c0.46,0.24,0.73,0.67,0.79,1.29c0.11,1.06-0.54,2.15-1.95,3.27c-0.07,0.04-0.32,0.24-0.76,0.59c-0.09,0.07-0.46,0.35-1.12,0.86
		c-0.66,0.51-1.15,0.89-1.48,1.15c0.13,0.09,0.27,0.21,0.43,0.36c0.15,0.15,0.32,0.34,0.5,0.56c0.18,0.22,0.31,0.39,0.4,0.5
		c0.22,0.24,0.35,0.38,0.4,0.43c0.04,0.04,0.12,0.12,0.21,0.21c0.1,0.1,0.18,0.17,0.25,0.2c0.07,0.03,0.15,0.07,0.25,0.12
		c0.1,0.04,0.19,0.08,0.28,0.1c0.09-0.02,0.15-0.02,0.18,0c0.03,0.02,0.09,0.02,0.18-0.02s0.15-0.06,0.18-0.07
		c0.03-0.01,0.08-0.04,0.15-0.1c0.07-0.06,0.12-0.09,0.15-0.1c0.03-0.01,0.09-0.05,0.17-0.12c0.08-0.07,0.14-0.11,0.18-0.13
		c0.2-0.15,0.47-0.38,0.81-0.68c0.34-0.3,0.66-0.56,0.96-0.79c0.3-0.23,0.6-0.41,0.91-0.54c0.15-0.09,0.29-0.07,0.41,0.05
		c0.12,0.12,0.15,0.27,0.08,0.45c-0.15,0.29-0.35,0.57-0.59,0.86c-0.24,0.29-0.47,0.51-0.68,0.68c-0.21,0.17-0.5,0.38-0.87,0.64
		c-0.04,0.04-0.18,0.15-0.41,0.31s-0.41,0.3-0.54,0.4s-0.3,0.19-0.5,0.28c-0.2,0.09-0.39,0.12-0.56,0.1c-0.37,0-0.81-0.26-1.3-0.78
		c-0.5-0.52-0.97-1.02-1.42-1.52c-0.45-0.49-0.82-0.73-1.11-0.71c-0.59,0.44-1.15,0.68-1.68,0.73c-0.02,0.09-0.08,0.28-0.18,0.58
		s-0.18,0.53-0.25,0.71c-0.2,0.66-0.55,1.95-1.06,3.86s-1.01,3.53-1.52,4.85c-0.51,1.32-1.13,2.48-1.88,3.46
		c-0.18,0.24-0.41,0.33-0.71,0.26s-0.46-0.26-0.48-0.59c-0.02-1.23,0.14-2.52,0.48-3.88c0.34-1.35,0.87-2.97,1.6-4.85
		c0.73-1.88,1.18-3.13,1.35-3.75c0.44-1.32,1.24-3.47,2.41-6.45c1.17-2.98,2.58-6.44,4.26-10.36c1.67-3.93,3.51-7.77,5.53-11.52
		c2.01-3.75,3.82-6.52,5.43-8.3c0.15-0.18,0.32-0.21,0.5-0.12C115.45,5.24,115.48,5.4,115.37,5.62z M103.92,35.48
		c-0.95,0.79-1.94,1.68-2.97,2.67c-0.02,0.02-0.06,0.04-0.1,0.07c-0.04,0.09-0.1,0.23-0.17,0.41c-0.07,0.19-0.12,0.34-0.16,0.45
		c0.29-0.2,0.81-0.53,1.58-1.01c0.77-0.47,1.42-0.9,1.95-1.27c0.53-0.37,1.01-0.76,1.45-1.16c0.11-0.11,0.23-0.24,0.36-0.4
		c0.13-0.15,0.27-0.34,0.41-0.56c0.14-0.22,0.19-0.41,0.13-0.56c-0.06-0.15-0.24-0.24-0.54-0.26c-0.11,0-0.3,0.1-0.56,0.31
		c-0.26,0.21-0.56,0.47-0.87,0.79C104.11,35.29,103.94,35.46,103.92,35.48z"/>
	<path class="lines" d="M117.72,36.24c0.13,0.04,0.22,0.14,0.26,0.3c0.04,0.15,0.01,0.29-0.1,0.4c-0.24,0.22-0.54,0.43-0.89,0.64
		c-0.35,0.21-0.67,0.38-0.96,0.51c-0.29,0.13-0.64,0.3-1.06,0.49c-0.42,0.2-0.75,0.35-0.99,0.46c-0.35,0.2-0.85,0.46-1.49,0.79
		c-0.64,0.33-1.07,0.55-1.29,0.66c-0.48,0.4-1.28,0.79-2.38,1.19c-0.31,0.13-0.53,0.03-0.68-0.31c-0.14-0.34-0.06-0.6,0.25-0.78
		c0.24-0.13,0.6-0.33,1.07-0.59c0.47-0.26,0.73-0.41,0.78-0.43c0.09-0.13,0.15-0.26,0.2-0.4c0.07-0.15,0.1-0.29,0.12-0.4
		c0.01-0.11,0-0.23-0.03-0.35c-0.03-0.12-0.06-0.21-0.08-0.26c-0.02-0.05-0.08-0.17-0.18-0.33c-0.1-0.17-0.16-0.28-0.18-0.35
		c-0.04-0.07-0.12-0.18-0.21-0.35c-0.1-0.17-0.18-0.3-0.23-0.4c-0.06-0.1-0.12-0.23-0.2-0.38c-0.08-0.15-0.14-0.29-0.18-0.4
		c-0.04-0.11-0.09-0.24-0.13-0.38c-0.04-0.14-0.08-0.28-0.1-0.41c-0.09-0.66,0.05-1.22,0.43-1.67c0.37-0.45,0.88-0.65,1.52-0.61
		c0.2,0.02,0.34,0.12,0.41,0.3c0.08,0.18,0.08,0.34,0,0.5c-0.08,0.15-0.21,0.22-0.41,0.2c-1.34-0.15-1.2,1.15,0.43,3.93
		c0.18,0.29,0.27,0.45,0.3,0.5c0.07,0.13,0.11,0.25,0.13,0.36c0.2-0.09,0.42-0.2,0.68-0.35s0.51-0.29,0.76-0.43
		c0.25-0.14,0.47-0.26,0.64-0.35c0.15-0.09,0.36-0.21,0.61-0.36c0.25-0.15,0.45-0.27,0.59-0.35c0.14-0.08,0.35-0.18,0.61-0.31
		c0.26-0.13,0.48-0.21,0.64-0.25c0.17-0.03,0.38-0.07,0.66-0.12C117.31,36.13,117.54,36.15,117.72,36.24z"/>
</g>
<g>
</g>
<g>
</g>
<g>
</g>
<g>
</g>
<g>
</g>
<g>
</g>
</svg>
