<?xml version="1.0" encoding="utf-8"?>
<!-- Generator: Adobe Illustrator 16.0.0, SVG Export Plug-In . SVG Version: 6.00 Build 0)  -->
<!DOCTYPE svg PUBLIC "-//W3C//DTD SVG 1.1//EN" "http://www.w3.org/Graphics/SVG/1.1/DTD/svg11.dtd">
<svg version="1.1" id="Layer_1" xmlns="http://www.w3.org/2000/svg" xmlns:xlink="http://www.w3.org/1999/xlink" x="0px" y="0px"
	 width="517px" height="525px" viewBox="-114.5 -114 517 525" enable-background="new -114.5 -114 517 525" xml:space="preserve">
<g>
	<path fill="#FFFFFF" d="M151.105,147.545c-1.323-0.944-2.813-1.723-3.948-2.855c-27.696-27.634-55.366-55.294-83.013-82.976
		c-9.752-9.763-12.125-22.219-5.23-33.432c5.31-8.638,12.471-16.027,21.713-20.695c10.167-5.135,22.043-2.437,31.143,6.642
		c21.945,21.892,43.847,43.828,65.765,65.747c15.557,15.555,30.73,31.517,46.793,46.529c11.592,10.833,11.629,32.664,0.002,44.088
		c-37.715,37.052-74.877,74.661-112.288,112.022c-12.566,12.55-28.481,12.502-41.059-0.146c-4.129-4.152-8.613-8.188-11.752-13.042
		c-7.211-11.155-5.01-24.185,5.162-34.381c27.19-27.253,54.426-54.461,81.673-81.657c1.494-1.492,3.26-2.715,4.896-4.062
		C151.012,148.733,151.061,148.139,151.105,147.545z"/>
</g>
</svg>
