<svg id="Ebene_1" data-name="Ebene 1" xmlns="http://www.w3.org/2000/svg" viewBox="0 0 32 32"><defs><style>.cls-1{fill-rule:evenodd;}</style></defs><title>icon-twitter</title><path class="cls-1" d="M26.71,9.18a8.67,8.67,0,0,1-2.52.71A4.55,4.55,0,0,0,26.12,7.4a8.77,8.77,0,0,1-2.79,1.09,4.37,4.37,0,0,0-3.21-1.42,4.45,4.45,0,0,0-4.39,4.51,4.31,4.31,0,0,0,.11,1A12.35,12.35,0,0,1,6.78,7.89a4.57,4.57,0,0,0-.59,2.27,4.52,4.52,0,0,0,2,3.75,4.21,4.21,0,0,1-2-.56v.06a4.49,4.49,0,0,0,3.53,4.42,4.31,4.31,0,0,1-2,.08A4.42,4.42,0,0,0,11.8,21,8.69,8.69,0,0,1,6.34,23a9,9,0,0,1-1-.06,12.18,12.18,0,0,0,6.74,2c8.08,0,12.5-6.87,12.5-12.83,0-.2,0-.39,0-.58A9,9,0,0,0,26.71,9.18Z"/></svg>