<svg id="Ebene_1" data-name="Ebene 1" xmlns="http://www.w3.org/2000/svg" viewBox="0 0 48 48"><title>Zeichenfläche 1</title><path d="M40.5,42H7.5c-1,0-1.5-.45-1.5-1.5v-21l3.74.81a14.07,14.07,0,0,0-.62,4.12A14.69,14.69,0,0,0,24,38.88,14.69,14.69,0,0,0,39,24.43a14.07,14.07,0,0,0-.62-4.12L42,19.5v21C42,41.55,41.55,42,40.5,42ZM24,14.57a9.49,9.49,0,0,1,9.63,9.34A9.49,9.49,0,0,1,24,33.25a9.5,9.5,0,0,1-9.64-9.34A9.5,9.5,0,0,1,24,14.57ZM33,7.5A1.5,1.5,0,0,1,34.5,6h6A1.5,1.5,0,0,1,42,7.5v6A1.5,1.5,0,0,1,40.5,15h-6A1.5,1.5,0,0,1,33,13.5v-6ZM48,42V6a5.9,5.9,0,0,0-6-6H6A5.9,5.9,0,0,0,0,6V42a5.91,5.91,0,0,0,6,6H42A5.92,5.92,0,0,0,48,42Z"/></svg>