<svg id="Ebene_1" data-name="Ebene 1" xmlns="http://www.w3.org/2000/svg" viewBox="0 0 32 32"><title>icon-behance</title><rect x="19.62" y="9.03" width="5.95" height="1.52"/><path d="M27.77,16.32a5.27,5.27,0,0,0-.84-2.25,4.28,4.28,0,0,0-1.83-1.61A5.82,5.82,0,0,0,22.62,12a5,5,0,0,0-3.79,1.51,6,6,0,0,0-1.45,4.34A5.38,5.38,0,0,0,19,22.16a5.69,5.69,0,0,0,3.73,1.34,5.07,5.07,0,0,0,4-1.59,3.53,3.53,0,0,0,1-2H24.9a2.63,2.63,0,0,1-.57.74,2.27,2.27,0,0,1-1.54.5,2.68,2.68,0,0,1-1.52-.41,2.63,2.63,0,0,1-1.11-2.3h7.71A13.84,13.84,0,0,0,27.77,16.32Zm-7.54.29A2.91,2.91,0,0,1,21,14.92a2.14,2.14,0,0,1,1.65-.63,2.39,2.39,0,0,1,1.64.59A2.48,2.48,0,0,1,25,16.61Z"/><path d="M14,15.44a3.59,3.59,0,0,0,1.12-.86,3.44,3.44,0,0,0,.68-2.24A3.94,3.94,0,0,0,15.09,10,4.46,4.46,0,0,0,11.26,8.4H4.13V23.6h6.65a10.52,10.52,0,0,0,2.09-.2,4,4,0,0,0,1.67-.77,4.27,4.27,0,0,0,1-1.19A4.57,4.57,0,0,0,16.24,19a4.12,4.12,0,0,0-.58-2.22A3.3,3.3,0,0,0,14,15.44ZM7.54,11h2.75a5.33,5.33,0,0,1,1.74.24,1.35,1.35,0,0,1,.79,1.4,1.47,1.47,0,0,1-.6,1.34,2.91,2.91,0,0,1-1.56.37H7.54Zm4.61,9.65a3.2,3.2,0,0,1-1.49.27H7.54V16.91h3.17a3.51,3.51,0,0,1,1.48.26,1.64,1.64,0,0,1,.93,1.63A1.91,1.91,0,0,1,12.15,20.69Z"/></svg>