<?xml version="1.0" encoding="utf-8"?>
<!-- Generator: Adobe Illustrator 26.4.1, SVG Export Plug-In . SVG Version: 6.00 Build 0)  -->
<svg version="1.1" id="Layer_1" xmlns="http://www.w3.org/2000/svg" xmlns:xlink="http://www.w3.org/1999/xlink" x="0px" y="0px"
	 viewBox="0 0 186.3 186.35" style="enable-background:new 0 0 186.3 186.35;" xml:space="preserve">
<style type="text/css">
	.st0{fill:#FFFFFF;}
</style>
<g>
	<path d="M93.1,183.12c-50.46-0.75-89.66-40.01-89.88-90.06C3.01,43.41,43.73,3.13,93.22,3.22c49.7,0.1,89.9,40.38,89.86,89.96
		C183.04,142.07,143.9,182.63,93.1,183.12z"/>
	<path class="st0" d="M123.7,74.76c3.47,0,5.92-0.08,8.35,0.02c5.3,0.21,9.11,3.92,9.17,8.8c0.06,4.84-3.75,8.85-9,8.98
		c-7.56,0.18-15.13,0.14-22.7,0.01c-2.55-0.05-4.39,0.7-6.2,2.53c-14.14,14.27-28.36,28.46-42.6,42.64
		c-3.19,3.18-7.37,3.9-10.87,2.07c-3.4-1.77-5.22-5.42-4.67-9.34c0.34-2.48,1.81-4.26,3.51-5.96c10.1-10.07,20.18-20.16,30.26-30.24
		c0.32-0.32,0.61-0.67,1.49-1.65c-6.78,0-12.79,0-18.79,0c-2.36,0-4.72,0.07-7.07-0.02c-5.68-0.21-9.37-3.75-9.37-8.93
		c0-5.18,3.68-8.84,9.36-8.88c13.02-0.1,26.05-0.17,39.07,0.05c3.57,0.06,5.99-1.06,8.4-3.57c7.22-7.51,14.67-14.79,22.05-22.14
		c4.43-4.41,9.63-4.74,13.48-0.94c3.87,3.83,3.6,9.06-0.76,13.47C132.73,65.79,128.59,69.88,123.7,74.76z"/>
</g>
</svg>
